<svg xmlns="http://www.w3.org/2000/svg" viewBox="0 0 1000 500" id="Layer_1"><style id="style3"/><path d="M35.884 30.382a2.34 2.34 0 1 1-4.68 0 2.34 2.34 0 1 1 4.68 0z" id="path3906" opacity=".4" fill="#fff" fill-rule="evenodd"/><path d="M49.926 91.23a2.34 2.34 0 1 1-4.68 0 2.34 2.34 0 1 1 4.68 0z" id="path3908" opacity=".4" fill="#fff" fill-rule="evenodd"/><path d="M151.34 73.288a2.34 2.34 0 1 1-4.682 0 2.34 2.34 0 1 1 4.68 0z" id="path3910" opacity=".4" fill="#fff" fill-rule="evenodd"/><path d="M117.014 148.957a2.34 2.34 0 1 1-4.68 0 2.34 2.34 0 1 1 4.68 0z" id="path3912" opacity=".3" fill="#fff" fill-rule="evenodd"/><path d="M207.505 119.313a2.34 2.34 0 1 1-4.68 0 2.34 2.34 0 1 1 4.68 0z" id="path3914" opacity=".4" fill="#fff" fill-rule="evenodd"/><path d="M174.74 261.29a2.34 2.34 0 1 1-4.68 0 2.34 2.34 0 1 1 4.68 0z" id="path3916" opacity=".4" fill="#fff" fill-rule="evenodd"/><path d="M38.225 203.564a2.34 2.34 0 1 1-4.68 0 2.34 2.34 0 1 1 4.68 0z" id="path3920" opacity=".2" fill="#fff" fill-rule="evenodd"/><path d="M42.905 363.483a2.34 2.34 0 1 1-4.68 0 2.34 2.34 0 1 1 4.68 0z" id="path3924" opacity=".4" fill="#fff" fill-rule="evenodd"/><path d="M135.174 8.87a2.34 2.34 0 1 1-4.68 0 2.34 2.34 0 1 1 4.68 0z" id="path3926" opacity=".2" fill="#fff" fill-rule="evenodd"/><path d="M370.16 151.185a2.34 2.34 0 1 1-4.68 0 2.34 2.34 0 1 1 4.68 0z" id="path3928" opacity=".3" fill="#fff" fill-rule="evenodd"/><path d="M279.145 241.65a2.34 2.34 0 1 1-4.68 0 2.34 2.34 0 1 1 4.68 0z" id="path3930" opacity=".4" fill="#fff" fill-rule="evenodd"/><path d="M453.454 379.552a2.34 2.34 0 1 1-4.68 0 2.34 2.34 0 1 1 4.68 0z" id="path3932" opacity=".4" fill="#fff" fill-rule="evenodd"/><path d="M393.88 308.394a2.34 2.34 0 1 1-4.68 0 2.34 2.34 0 1 1 4.68 0z" id="path3934" opacity=".3" fill="#fff" fill-rule="evenodd"/><path d="M456.763 200.28a2.34 2.34 0 1 1-4.68 0 2.34 2.34 0 1 1 4.68 0z" id="path3936" opacity=".4" fill="#fff" fill-rule="evenodd"/><path d="M298.45 61.824a2.34 2.34 0 1 1-4.68 0 2.34 2.34 0 1 1 4.68 0z" id="path3938" opacity=".4" fill="#fff" fill-rule="evenodd"/><path d="M455.66 46.93a2.34 2.34 0 1 1-4.68 0 2.34 2.34 0 1 1 4.68 0z" id="path3940" opacity=".4" fill="#fff" fill-rule="evenodd"/><path d="M248.806 377.897a2.34 2.34 0 1 1-4.68 0 2.34 2.34 0 1 1 4.68 0z" id="path3942" opacity=".4" fill="#fff" fill-rule="evenodd"/><path d="M162.365 359.296a2.34 2.34 0 1 1-4.68 0 2.34 2.34 0 1 1 4.68 0z" id="path3944" opacity=".2" fill="#fff" fill-rule="evenodd"/><path d="M270.87 330.46a2.34 2.34 0 1 1-4.68 0 2.34 2.34 0 1 1 4.68 0z" id="path3946" opacity=".4" fill="#fff" fill-rule="evenodd"/><path d="M360.783 484.358a2.34 2.34 0 1 1-4.68 0 2.34 2.34 0 1 1 4.68 0z" id="path3948" opacity=".3" fill="#fff" fill-rule="evenodd"/><path d="M163.306 483.807a2.34 2.34 0 1 1-4.68 0 2.34 2.34 0 1 1 4.68 0z" id="path3950" opacity=".4" fill="#fff" fill-rule="evenodd"/><path d="M65.12 474.98a2.34 2.34 0 1 1-4.68 0 2.34 2.34 0 1 1 4.68 0z" id="path3952" opacity=".4" fill="#fff" fill-rule="evenodd"/><path d="M121.936 441.333a2.34 2.34 0 1 1-4.68 0 2.34 2.34 0 1 1 4.68 0z" id="path3954" opacity=".4" fill="#fff" fill-rule="evenodd"/><path d="M323.274 441.884a2.34 2.34 0 1 1-4.68 0 2.34 2.34 0 1 1 4.68 0z" id="path3956" opacity=".4" fill="#fff" fill-rule="evenodd"/><path d="M462.83 455.123a2.34 2.34 0 1 1-4.68 0 2.34 2.34 0 1 1 4.68 0z" id="path3958" opacity=".4" fill="#fff" fill-rule="evenodd"/><path d="M390.02 418.165a2.34 2.34 0 1 1-4.682 0 2.34 2.34 0 1 1 4.68 0z" id="path3960" opacity=".4" fill="#fff" fill-rule="evenodd"/><path d="M412.635 432.507a2.34 2.34 0 1 1-4.68 0 2.34 2.34 0 1 1 4.68 0z" id="path3962" opacity=".4" fill="#fff" fill-rule="evenodd"/><path d="M317.758 176.56a2.34 2.34 0 1 1-4.68 0 2.34 2.34 0 1 1 4.68 0z" id="path3966" opacity=".4" fill="#fff" fill-rule="evenodd"/><path d="M379.538 22.66a2.34 2.34 0 1 1-4.68 0 2.34 2.34 0 1 1 4.68 0z" id="path3968" opacity=".2" fill="#fff" fill-rule="evenodd"/><path d="M125.705 388.735a2.34 2.34 0 1 1-4.68 0 2.34 2.34 0 1 1 4.68 0z" id="path4022" opacity=".4" fill="#fff" fill-rule="evenodd"/><path d="M26.835 425.95a2.34 2.34 0 1 1-4.68 0 2.34 2.34 0 1 1 4.68 0z" id="path4024" opacity=".3" fill="#fff" fill-rule="evenodd"/><path d="M99.043 283.755a2.34 2.34 0 1 1-4.68 0 2.34 2.34 0 1 1 4.68 0z" id="path4026" opacity=".4" fill="#fff" fill-rule="evenodd"/><path d="M220.687 173.22a2.34 2.34 0 1 1-4.68 0 2.34 2.34 0 1 1 4.68 0z" id="path4028" opacity=".4" fill="#fff" fill-rule="evenodd"/><path d="M355.797 248.315a2.34 2.34 0 1 1-4.68 0 2.34 2.34 0 1 1 4.68 0z" id="path4032" opacity=".4" fill="#fff" fill-rule="evenodd"/><path d="M489.66 281.642a2.34 2.34 0 1 1-4.68 0 2.34 2.34 0 1 1 4.68 0z" id="path4034" opacity=".4" fill="#fff" fill-rule="evenodd"/><path d="M476.885 301.083a2.34 2.34 0 1 1-4.68 0 2.34 2.34 0 1 1 4.68 0z" id="path4036" opacity=".2" fill="#fff" fill-rule="evenodd"/><path d="M559.572 213.3a2.34 2.34 0 1 1-4.68 0 2.34 2.34 0 1 1 4.68 0z" id="path4038" opacity=".4" fill="#fff" fill-rule="evenodd"/><path d="M667.975 122.966a2.34 2.34 0 1 1-4.68 0 2.34 2.34 0 1 1 4.68 0z" id="path4040" opacity=".4" fill="#fff" fill-rule="evenodd"/><path d="M757.525 42.057a2.34 2.34 0 1 1-4.68 0 2.34 2.34 0 1 1 4.68 0z" id="path4042" opacity=".2" fill="#fff" fill-rule="evenodd"/><path d="M706.466 111.968a2.34 2.34 0 1 1-4.68 0 2.34 2.34 0 1 1 4.68 0z" id="path4044" opacity=".4" fill="#fff" fill-rule="evenodd"/><path d="M603.562 57.767a2.34 2.34 0 1 1-4.68 0 2.34 2.34 0 1 1 4.68 0z" id="path4046" opacity=".4" fill="#fff" fill-rule="evenodd"/><path d="M684.47 273a2.34 2.34 0 1 1-4.68 0 2.34 2.34 0 1 1 4.68 0z" id="path4048" opacity=".2" fill="#fff" fill-rule="evenodd"/><path d="M752.812 208.588a2.34 2.34 0 1 1-4.68 0 2.34 2.34 0 1 1 4.68 0z" id="path4050" opacity=".4" fill="#fff" fill-rule="evenodd"/><path d="M655.406 217.23a2.34 2.34 0 1 1-4.68 0 2.34 2.34 0 1 1 4.68 0z" id="path4052" opacity=".4" fill="#fff" fill-rule="evenodd"/><path d="M538.363 381.404a2.34 2.34 0 1 1-4.68 0 2.34 2.34 0 1 1 4.68 0z" id="path4054" opacity=".4" fill="#fff" fill-rule="evenodd"/><path d="M607.49 282.427a2.34 2.34 0 1 1-4.68 0 2.34 2.34 0 1 1 4.68 0z" id="path4056" opacity=".3" fill="#fff" fill-rule="evenodd"/><path d="M660.12 366.48a2.34 2.34 0 1 1-4.68 0 2.34 2.34 0 1 1 4.68 0z" id="path4058" opacity=".4" fill="#fff" fill-rule="evenodd"/><path d="M758.31 320.918a2.34 2.34 0 1 1-4.68 0 2.34 2.34 0 1 1 4.68 0z" id="path4060" opacity=".4" fill="#fff" fill-rule="evenodd"/><path d="M795.23 274.572a2.34 2.34 0 1 1-4.68 0 2.34 2.34 0 1 1 4.68 0z" id="path4062" opacity=".4" fill="#fff" fill-rule="evenodd"/><path d="M726.89 399.47a2.34 2.34 0 1 1-4.68 0 2.34 2.34 0 1 1 4.68 0z" id="path4064" opacity=".4" fill="#fff" fill-rule="evenodd"/><path d="M611.417 431.677a2.34 2.34 0 1 1-4.68 0 2.34 2.34 0 1 1 4.68 0z" id="path4066" opacity=".3" fill="#fff" fill-rule="evenodd"/><path d="M691.54 465.455a2.34 2.34 0 1 1-4.68 0 2.34 2.34 0 1 1 4.68 0z" id="path4068" opacity=".4" fill="#fff" fill-rule="evenodd"/><path d="M777.948 489.02a2.34 2.34 0 1 1-4.68 0 2.34 2.34 0 1 1 4.68 0z" id="path4070" opacity=".2" fill="#fff" fill-rule="evenodd"/><path d="M588.637 484.307a2.34 2.34 0 1 1-4.68 0 2.34 2.34 0 1 1 4.68 0z" id="path4074" opacity=".4" fill="#fff" fill-rule="evenodd"/><path d="M962.547 99.4a2.34 2.34 0 1 1-4.68 0 2.34 2.34 0 1 1 4.68 0z" id="path4076" opacity=".2" fill="#fff" fill-rule="evenodd"/><path d="M993.968 42.057a2.34 2.34 0 1 1-4.68 0 2.34 2.34 0 1 1 4.68 0z" id="path4078" opacity=".4" fill="#fff" fill-rule="evenodd"/><path d="M887.922 16.134a2.34 2.34 0 1 1-4.68 0 2.34 2.34 0 1 1 4.68 0z" id="path4080" opacity=".4" fill="#fff" fill-rule="evenodd"/><path d="M832.15 95.472a2.34 2.34 0 1 1-4.68 0 2.34 2.34 0 1 1 4.68 0z" id="path4082" opacity=".3" fill="#fff" fill-rule="evenodd"/><path d="M901.276 181.88a2.34 2.34 0 1 1-4.68 0 2.34 2.34 0 1 1 4.68 0z" id="path4084" opacity=".4" fill="#fff" fill-rule="evenodd"/><path d="M883.21 292.64a2.34 2.34 0 1 1-4.682 0 2.34 2.34 0 1 1 4.68 0z" id="path4086" opacity=".4" fill="#fff" fill-rule="evenodd"/><path d="M955.477 252.577a2.34 2.34 0 1 1-4.68 0 2.34 2.34 0 1 1 4.68 0z" id="path4088" opacity=".4" fill="#fff" fill-rule="evenodd"/><path d="M887.136 408.11a2.34 2.34 0 1 1-4.68 0 2.34 2.34 0 1 1 4.68 0z" id="path4090" opacity=".3" fill="#fff" fill-rule="evenodd"/><path d="M949.978 355.48a2.34 2.34 0 1 1-4.68 0 2.34 2.34 0 1 1 4.68 0z" id="path4092" opacity=".4" fill="#fff" fill-rule="evenodd"/><path d="M814.868 357.838a2.34 2.34 0 1 1-4.68 0 2.34 2.34 0 1 1 4.68 0z" id="path4094" opacity=".4" fill="#fff" fill-rule="evenodd"/><path d="M966.474 470.953a2.34 2.34 0 1 1-4.68 0 2.34 2.34 0 1 1 4.68 0z" id="path4096" opacity=".4" fill="#fff" fill-rule="evenodd"/><path d="M983.756 396.33a2.34 2.34 0 1 1-4.68 0 2.34 2.34 0 1 1 4.68 0z" id="path4098" opacity=".2" fill="#fff" fill-rule="evenodd"/><path d="M878.496 458.385a2.34 2.34 0 1 1-4.68 0 2.34 2.34 0 1 1 4.68 0z" id="path4100" opacity=".4" fill="#fff" fill-rule="evenodd"/><path d="M883.21 248.65a2.34 2.34 0 1 1-4.682 0 2.34 2.34 0 1 1 4.68 0z" id="path4102" opacity=".4" fill="#fff" fill-rule="evenodd"/><path d="M844.718 170.883a2.34 2.34 0 1 1-4.68 0 2.34 2.34 0 1 1 4.68 0z" id="path4104" opacity=".4" fill="#fff" fill-rule="evenodd"/><path d="M762.238 14.563a2.34 2.34 0 1 1-4.68 0 2.34 2.34 0 1 1 4.68 0z" id="path4106" opacity=".4" fill="#fff" fill-rule="evenodd"/></svg>