<?xml version="1.0" standalone="no"?>
<!DOCTYPE svg PUBLIC "-//W3C//DTD SVG 20010904//EN"
 "http://www.w3.org/TR/2001/REC-SVG-20010904/DTD/svg10.dtd">
<svg version="1.0" xmlns="http://www.w3.org/2000/svg"
 width="300.000000pt" height="300.000000pt" viewBox="0 0 300.000000 300.000000"
 preserveAspectRatio="xMidYMid meet">
<metadata>
Created by potrace 1.11, written by Peter Selinger 2001-2013
</metadata>
<g transform="translate(0.000000,300.000000) scale(0.100000,-0.100000)"
fill="#000000" stroke="none">
<path d="M1330 2989 c-247 -28 -506 -128 -712 -276 -104 -74 -257 -227 -331
-331 -183 -254 -287 -578 -287 -892 l0 -71 111 3 111 3 159 275 158 275 -5 70
c-6 64 -3 75 23 125 70 132 241 160 346 55 29 -28 128 -191 316 -518 151 -262
277 -477 280 -477 3 0 130 215 281 478 184 321 288 490 315 517 68 67 153 82
240 41 92 -42 130 -112 123 -222 l-4 -64 151 -262 151 -263 122 -3 122 -3 0
56 c0 86 -19 241 -42 339 -112 486 -473 892 -947 1065 -209 76 -455 105 -681
80z"/>
<path d="M677 1698 c-9 -12 -72 -122 -142 -243 -69 -121 -139 -233 -154 -248
-36 -37 -81 -46 -224 -47 l-117 0 6 -27 c15 -69 70 -216 110 -296 210 -423
580 -707 1054 -808 152 -33 429 -33 580 0 174 37 357 108 490 190 l47 29 303
-84 c167 -46 305 -83 306 -81 2 2 -44 127 -102 279 l-106 275 41 54 c87 114
172 310 189 437 l9 62 -136 0 c-159 0 -199 9 -238 53 -15 18 -86 133 -157 255
-77 135 -132 220 -138 214 -5 -5 -143 -242 -307 -528 -320 -557 -351 -602
-431 -624 -74 -20 -176 6 -222 56 -9 11 -157 262 -328 559 -172 297 -314 542
-316 543 -1 2 -9 -7 -17 -20z"/>
</g>
</svg>
