<svg xmlns="http://www.w3.org/2000/svg" width="427.457" height="100" viewBox="0 0 427.457 100">
  <path d="M-1252.83-319.79c1.242.717 1.667 2.302.95 3.543l-8.828 15.29c-.717 1.243-2.302 1.667-3.543.95-1.243-.716-1.667-2.3-.95-3.543l8.827-15.29c.717-1.242 2.302-1.667 3.544-.95z" fill="#d10053" />
  <path d="M49.973 0C22.273 0 .003 22.328.003 50.03c0 .865-.015 1.717.028 2.572h7.282l10.79-18.655c-1.423-3.42-.075-7.486 3.216-9.386.893-.514 1.81-.845 2.778-.964 2.904-.354 5.91 1.034 7.456 3.714l18.392 31.842L68.306 27.31c1.547-2.68 4.523-4.068 7.427-3.714.968.118 1.943.45 2.836.965 3.274 1.892 4.58 5.92 3.187 9.33L91.96 51.636h7.955c.086-.03.075.098.087-1.608C100.002 22.327 77.674 0 49.972 0zm-26.96 42.514l-9.502 16.492c-.215.373-.52.654-.818.935-.196.185-.39.385-.614.528-.136.087-.265.192-.41.263-.033.017-.082.013-.116.03-.194.094-.406.14-.614.205-.134.04-.27.088-.41.117-.133.02-.274.04-.41.058-.15.017-.31.03-.467.03H1.23C6.286 83.446 26.122 100 49.973 100c10.214 0 19.675-3.028 27.573-8.246l20.556 5.673-7.164-18.685c3.17-3.464 7.897-11.767 7.924-18.538h-9.24c-.148 0-.265-.042-.41-.058-.135-.017-.275-.037-.41-.06-.138-.028-.274-.045-.408-.086-.268-.083-.517-.19-.76-.322-.123-.06-.263-.132-.38-.205-.235-.143-.408-.335-.614-.526-.31-.286-.597-.58-.82-.965l-8.946-15.468-20.44 35.41c-.03.054-.083.092-.116.146-.13.212-.262.42-.41.614-.44.58-.964 1.107-1.578 1.55-.03.02-.058.037-.088.058-.18.125-.363.24-.556.35-.223.13-.442.248-.672.352-.225.102-.468.183-.702.263-1.984.68-4.232.563-6.17-.556-1.456-.84-2.515-2.114-3.128-3.566l-20-34.62z" fill="#49d8fb"/>
  <path d="M165.807 26.71c-1.51 0-2.936.922-3.44 2.18L149.53 61.444 136.693 28.89c-.503-1.258-1.93-2.18-3.44-2.18-2.097 0-3.775 1.76-3.775 3.858 0 .67.168 1.175.42 1.762l14.598 34.903c.755 1.678 2.517 3.104 4.615 3.104h.84c2.097 0 3.86-1.426 4.614-3.104l14.6-34.903c.25-.587.42-1.09.42-1.762 0-2.097-1.68-3.86-3.777-3.86M196.556 26.29c-13.005 0-21.48 8.977-21.48 22.233 0 13.257 8.475 22.234 21.48 22.234 12.92 0 21.48-8.977 21.48-22.234 0-13.256-8.56-22.234-21.48-22.234m0 37.503c-6.46 0-13.844-4.195-13.844-15.354 0-11.076 7.383-15.187 13.844-15.187 6.376 0 13.844 4.11 13.844 15.186 0 11.158-7.468 15.353-13.844 15.353M246.345 70.757c5.873 0 10.488-2.35 14.347-6.377v21.395c0 2.182 1.678 3.86 3.86 3.86 2.097 0 3.775-1.678 3.775-3.86v-55.29c0-2.098-1.678-3.776-3.776-3.776-2.18 0-3.858 1.677-3.858 3.774v2.182c-3.86-4.028-8.474-6.377-14.347-6.377-10.152 0-20.304 7.97-20.304 22.233 0 14.263 10.153 22.234 20.305 22.234m1.09-37.336c5.454 0 9.985 2.686 13.257 6.293v17.62c-3.272 3.607-7.803 6.292-13.256 6.292-7.97 0-13.76-5.202-13.76-15.102s5.79-15.102 13.76-15.102M297.68 26.29c-5.956 0-10.57 1.342-14.514 3.02-1.427.587-2.182 1.762-2.182 3.188 0 1.846 1.427 3.188 3.105 3.188.334 0 .754-.084 1.09-.168 3.104-1.006 6.46-2.013 11.158-2.013 7.55 0 11.243 2.936 11.243 10.403v.672h-10.15c-13.09 0-19.298 5.705-19.298 13.592 0 7.886 6.376 12.585 13.676 12.585 7.886 0 12.753-3.272 15.773-6.377v2.182c0 2.097 1.68 3.775 3.777 3.775 2.097 0 3.86-1.678 3.86-3.775V42.818c0-8.223-5.287-16.53-17.536-16.53m-3.02 37.757c-6.796 0-8.893-3.105-8.893-6.712 0-4.783 4.782-6.628 12.67-6.628h9.144v7.047c-2.85 3.272-7.718 6.293-12.92 6.293M332.558 8.25c-2.098 0-3.776 1.678-3.776 3.86v54.452c0 2.097 1.678 3.775 3.776 3.775 2.18 0 3.86-1.678 3.86-3.775V12.11c0-2.182-1.68-3.86-3.86-3.86" fill="#fff"/>
  <path d="M355.096 60.27h-.84c-2.6 0-4.698 2.097-4.698 4.698v.503c0 2.602 2.098 4.7 4.7 4.7h.838c2.6 0 4.698-2.098 4.698-4.7v-.502c0-2.6-2.097-4.7-4.698-4.7M388.3 26.29c-5.956 0-10.57 1.342-14.514 3.02-1.426.587-2.18 1.762-2.18 3.188 0 1.846 1.425 3.188 3.103 3.188.335 0 .754-.084 1.09-.168 3.104-1.006 6.46-2.013 11.16-2.013 7.55 0 11.24 2.936 11.24 10.403v.672h-10.15c-13.09 0-19.298 5.705-19.298 13.592 0 7.886 6.376 12.585 13.676 12.585 7.887 0 12.753-3.272 15.773-6.377v2.182c0 2.097 1.68 3.775 3.777 3.775 2.097 0 3.86-1.678 3.86-3.775V42.818c0-8.223-5.286-16.53-17.536-16.53m-3.02 37.757c-6.795 0-8.893-3.105-8.893-6.712 0-4.783 4.782-6.628 12.67-6.628h9.144v7.047c-2.85 3.272-7.718 6.293-12.92 6.293M422.842 26.71c-2.097 0-3.775 1.677-3.775 3.858v35.994c0 2.097 1.678 3.775 3.775 3.775 2.182 0 3.86-1.678 3.86-3.775V30.568c0-2.18-1.678-3.86-3.86-3.86m4.615-12.92c0-2.35-1.93-4.28-4.28-4.28h-.503c-2.35 0-4.28 1.93-4.28 4.28v.335c0 2.35 1.93 4.28 4.28 4.28h.504c2.35 0 4.28-1.93 4.28-4.28v-.335" fill="#b3b3b3" />
</svg>
