<svg xmlns="http://www.w3.org/2000/svg" width="411.55" height="106.875" viewBox="0 0 411.55002 106.875">
  <path d="M180.845 32.023c-1.727 0-3.358 1.055-3.933 2.494l-14.673 37.21-14.674-37.21c-.575-1.44-2.205-2.494-3.93-2.494-2.4 0-4.317 2.014-4.317 4.412 0 .767.19 1.342.48 2.014l16.686 39.894c.863 1.918 2.877 3.548 5.274 3.548h.96c2.397 0 4.41-1.63 5.274-3.548L184.68 38.45c.29-.673.48-1.248.48-2.015 0-2.398-1.92-4.412-4.315-4.412m19.016 0c-2.397 0-4.315 1.918-4.315 4.412v41.142c0 2.397 1.918 4.315 4.316 4.315 2.494 0 4.41-1.918 4.41-4.315V36.435c0-2.494-1.916-4.412-4.41-4.412m5.275-14.77c0-2.684-2.205-4.89-4.89-4.89h-.576c-2.686 0-4.89 2.206-4.89 4.89v.385c0 2.686 2.204 4.892 4.89 4.892h.574c2.685 0 4.89-2.206 4.89-4.89v-.385m55.32 57.828l-17.36-23.016 13.81-12.372c1.343-1.342 1.63-2.493 1.63-3.26 0-1.918-.96-4.22-4.22-4.22-1.15 0-2.11.575-2.876 1.247L228.614 54.56V15.337c0-2.398-2.015-4.412-4.413-4.412-2.397 0-4.315 2.014-4.315 4.41v62.242c0 2.397 1.92 4.315 4.317 4.315 2.398 0 4.412-1.918 4.412-4.315V65.205l8.342-7.576 16.495 22.44c.864 1.055 2.207 1.822 3.55 1.822 2.59 0 4.41-1.63 4.41-4.22 0-.96-.383-1.822-.96-2.59m53.12-38.647c0-2.398-1.917-4.412-4.315-4.412-1.918 0-3.26 1.15-4.028 2.877L290.17 71.343 275.4 34.708c-.67-1.533-2.204-2.684-4.026-2.684-2.4 0-4.317 2.014-4.317 4.412 0 .67.192 1.342.384 1.822l18.03 43.923-6.233 16.017c-.192.478-.288 1.054-.288 1.533 0 2.302 1.82 4.22 4.123 4.22 2.013 0 3.26-1.247 4.027-2.973l26.18-62.912c.193-.48.29-1.055.29-1.63" fill="#fff" />
  <path d="M328.84 70.384h-.96c-2.973 0-5.37 2.398-5.37 5.37v.576c0 2.973 2.397 5.37 5.37 5.37h.96c2.972 0 5.37-2.397 5.37-5.37v-.576c0-2.972-2.398-5.37-5.37-5.37m37.955-38.84c-6.81 0-12.085 1.534-16.593 3.452-1.63.67-2.493 2.013-2.493 3.643 0 2.11 1.63 3.644 3.547 3.644.384 0 .864-.096 1.247-.192 3.548-1.15 7.384-2.302 12.754-2.302 8.63 0 12.85 3.357 12.85 11.892v.767h-11.603c-14.96 0-22.057 6.52-22.057 15.535 0 9.014 7.29 14.385 15.632 14.385 9.015 0 14.578-3.74 18.03-7.29v2.495c0 2.397 1.918 4.315 4.316 4.315 2.398 0 4.412-1.918 4.412-4.315V50.437c0-9.4-6.042-18.893-20.043-18.893M363.34 74.7c-7.767 0-10.165-3.55-10.165-7.673 0-5.466 5.467-7.576 14.482-7.576h10.453v8.057c-3.26 3.74-8.823 7.193-14.77 7.193m42.935-42.677c-2.397 0-4.315 1.918-4.315 4.412v41.142c0 2.397 1.918 4.315 4.315 4.315 2.494 0 4.412-1.918 4.412-4.315V36.435c0-2.494-1.918-4.412-4.412-4.412m5.275-14.77c0-2.684-2.206-4.89-4.89-4.89h-.577c-2.685 0-4.89 2.206-4.89 4.89v.385c0 2.686 2.205 4.892 4.89 4.892h.576c2.684 0 4.89-2.206 4.89-4.89v-.385" fill="#bbb"/>
  <path d="M53.41 0C23.803 0 0 23.864 0 53.468c0 .927-.014 1.838.032 2.75h7.78l11.53-19.936c-1.52-3.654-.08-8 3.44-10.03.953-.552 1.933-.905 2.967-1.033 3.106-.378 6.317 1.106 7.97 3.97l19.656 34.03L73 29.19c1.654-2.864 4.835-4.348 7.94-3.97 1.034.127 2.076.48 3.03 1.032 3.5 2.02 4.896 6.327 3.406 9.968l10.907 18.97h8.5c.09-.033.08.105.092-1.72 0-29.603-23.863-53.467-53.468-53.467zM24.594 45.437L14.44 63.062c-.23.4-.556.7-.875 1-.21.197-.418.41-.656.563-.147.093-.285.205-.44.28-.035.02-.087.015-.124.032-.206.1-.432.15-.655.22-.143.043-.287.094-.437.124-.142.024-.292.046-.437.063-.163.018-.333.032-.5.032h-9c5.403 23.81 26.603 41.5 52.094 41.5 10.916 0 21.028-3.236 29.468-8.813l21.97 6.063-7.657-19.97c3.39-3.7 8.44-12.576 8.47-19.812h-9.875c-.16 0-.285-.044-.44-.062-.144-.017-.294-.04-.436-.062-.15-.03-.295-.048-.44-.092-.286-.09-.552-.203-.81-.344-.133-.064-.28-.14-.408-.22-.25-.152-.436-.357-.656-.56-.33-.307-.637-.62-.874-1.032L82.16 45.437 60.314 83.28c-.034.06-.09.1-.125.157-.14.227-.28.448-.438.656-.47.62-1.03 1.183-1.687 1.657-.03.022-.062.04-.094.062-.19.134-.387.257-.593.375-.238.138-.472.265-.718.375-.24.11-.5.196-.75.28-2.12.727-4.525.603-6.595-.592-1.557-.9-2.69-2.26-3.344-3.813l-21.375-37z" fill="#49d8fb" class="icon" />
</svg>
