<svg xmlns="http://www.w3.org/2000/svg" width="427.38" height="100" viewBox="0 0 427.38 100">
<path d="M49.974.002C22.28.002 0 22.332 0 50.028c0 .865.008 1.727.05 2.58h7.28L20.703 29.48c.74-1.282 2.04-2.072 3.407-2.168.82-.058 1.657.124 2.426.568 2.05 1.184 2.733 3.783 1.55 5.834L13.525 59.01c-.216.375-.528.65-.826.93-.196.184-.397.374-.62.516-.136.088-.27.187-.413.258l-.103.052c-.193.094-.41.142-.62.206-.134.04-.273.075-.412.103-.134.02-.278.034-.413.05-.154.017-.31.052-.466.052H1.24C6.293 83.45 26.127 100 49.973 100c10.212 0 19.672-3.043 27.57-8.26l20.546 5.68-7.176-18.69c3.17-3.463 7.923-11.765 7.95-18.534h-9.24c-.15 0-.27-.035-.414-.05-.135-.018-.28-.03-.413-.052-.14-.03-.28-.063-.413-.104-.268-.083-.53-.178-.774-.31-.124-.06-.244-.134-.362-.206-.235-.144-.413-.326-.62-.517-.308-.286-.603-.596-.825-.98L71.193 32.73c-1.185-2.05-.503-4.65 1.548-5.833.514-.296 1.102-.498 1.653-.568 1.654-.208 3.346.578 4.234 2.116l13.32 23.18h7.95c.086-.03.09.106.103-1.6C100 22.33 77.67 0 49.974 0z" />
<path d="M75.734 23.597c-2.904-.354-5.888 1.038-7.434 3.717L43.416 70.422c-2.062 3.572-.835 8.212 2.736 10.274 3.572 2.062 8.212.784 10.274-2.788L81.31 34.8c2.062-3.572.835-8.16-2.736-10.222-.893-.515-1.872-.863-2.84-.98z" fill="#30a9c8" />
<path d="M24.108 23.597c-.968.12-1.895.466-2.788.98-3.57 2.063-4.85 6.65-2.788 10.223l24.936 43.108c2.062 3.57 6.65 4.798 10.222 2.736 3.57-2.062 4.798-6.65 2.736-10.222L31.542 27.314c-1.547-2.678-4.53-4.07-7.434-3.717z" fill="#49d8fb" />
<path d="M165.782 26.713c-1.51 0-2.936.923-3.44 2.18l-12.833 32.55-12.836-32.55c-.503-1.257-1.93-2.18-3.44-2.18-2.096 0-3.774 1.762-3.774 3.86 0 .67.168 1.173.42 1.76l14.596 34.897c.755 1.677 2.516 3.103 4.613 3.103h.838c2.097 0 3.86-1.426 4.614-3.103l14.596-34.897c.25-.587.42-1.09.42-1.76 0-2.098-1.68-3.86-3.776-3.86M196.525 26.294c-13.002 0-21.475 8.975-21.475 22.23 0 13.253 8.473 22.23 21.475 22.23 12.918 0 21.474-8.977 21.474-22.23 0-13.255-8.557-22.23-21.475-22.23m0 37.496c-6.46 0-13.84-4.194-13.84-15.35 0-11.073 7.38-15.184 13.84-15.184 6.375 0 13.84 4.11 13.84 15.183 0 11.156-7.465 15.35-13.84 15.35M246.304 70.753c5.872 0 10.486-2.35 14.344-6.375v21.39c0 2.18 1.678 3.86 3.86 3.86 2.096 0 3.774-1.68 3.774-3.86v-55.28c0-2.097-1.678-3.775-3.775-3.775-2.18 0-3.86 1.678-3.86 3.775v2.18c-3.857-4.025-8.47-6.374-14.343-6.374-10.15 0-20.3 7.97-20.3 22.23 0 14.26 10.15 22.23 20.3 22.23m1.09-37.33c5.453 0 9.983 2.684 13.254 6.29v17.617c-3.27 3.608-7.8 6.293-13.253 6.293-7.97 0-13.758-5.2-13.758-15.1 0-9.898 5.79-15.1 13.758-15.1M297.63 26.294c-5.956 0-10.57 1.342-14.512 3.02-1.426.587-2.18 1.76-2.18 3.187 0 1.847 1.425 3.19 3.103 3.19.336 0 .756-.085 1.09-.17 3.105-1.006 6.46-2.012 11.158-2.012 7.55 0 11.24 2.936 11.24 10.402v.67h-10.15c-13.086 0-19.293 5.705-19.293 13.59s6.375 12.583 13.673 12.583c7.885 0 12.75-3.272 15.77-6.375v2.18c0 2.098 1.678 3.775 3.775 3.775s3.86-1.677 3.86-3.774V42.82c0-8.222-5.286-16.526-17.533-16.526m-3.02 37.748c-6.795 0-8.892-3.104-8.892-6.71 0-4.782 4.782-6.628 12.667-6.628h9.143v7.047c-2.852 3.272-7.717 6.292-12.918 6.292M332.5 8.258c-2.097 0-3.775 1.678-3.775 3.86v54.44c0 2.098 1.678 3.775 3.775 3.775 2.18 0 3.86-1.677 3.86-3.774V12.116c0-2.18-1.68-3.86-3.86-3.86" />
<path d="M355.034 60.267h-.84c-2.6 0-4.697 2.097-4.697 4.698v.503c0 2.6 2.097 4.698 4.698 4.698h.84c2.6 0 4.696-2.098 4.696-4.698v-.503c0-2.6-2.096-4.698-4.696-4.698M388.232 26.294c-5.955 0-10.57 1.342-14.512 3.02-1.426.587-2.18 1.76-2.18 3.187 0 1.847 1.425 3.19 3.103 3.19.336 0 .755-.085 1.09-.17 3.104-1.006 6.46-2.012 11.157-2.012 7.55 0 11.24 2.936 11.24 10.402v.67h-10.15c-13.085 0-19.293 5.705-19.293 13.59s6.375 12.583 13.673 12.583c7.886 0 12.75-3.272 15.77-6.375v2.18c0 2.098 1.68 3.775 3.776 3.775 2.097 0 3.858-1.677 3.858-3.774V42.82c0-8.222-5.284-16.526-17.532-16.526m-3.02 37.748c-6.794 0-8.89-3.104-8.89-6.71 0-4.782 4.78-6.628 12.665-6.628h9.144v7.047c-2.85 3.272-7.717 6.292-12.918 6.292M422.767 26.713c-2.097 0-3.775 1.678-3.775 3.86v35.986c0 2.096 1.678 3.773 3.775 3.773 2.18 0 3.858-1.677 3.858-3.774V30.57c0-2.18-1.677-3.86-3.858-3.86m4.613-12.917c0-2.35-1.93-4.278-4.278-4.278h-.503c-2.35 0-4.28 1.93-4.28 4.278v.335c0 2.35 1.93 4.28 4.28 4.28h.502c2.35 0 4.278-1.93 4.278-4.28v-.335" fill="#999" />
</svg>
