<svg xmlns="http://www.w3.org/2000/svg" width="413.559" height="106.897" viewBox="0 0 413.55899 106.897">
  <path d="M53.42.002C23.816.002 0 23.872 0 53.478c0 .925.01 1.846.055 2.76h7.782L22.13 31.513c.79-1.37 2.18-2.215 3.642-2.317.878-.062 1.772.132 2.594.607 2.193 1.265 2.922 4.043 1.656 6.236L14.46 63.08c-.233.4-.566.694-.885.994-.21.197-.424.4-.662.552-.146.094-.288.2-.442.276l-.11.055c-.206.1-.44.152-.66.22-.145.045-.293.08-.443.11-.142.023-.297.037-.44.055-.164.018-.33.055-.498.055H1.323c5.403 23.81 26.605 41.5 52.096 41.5 10.917 0 21.03-3.253 29.47-8.83l21.964 6.07-7.67-19.977c3.39-3.7 8.47-12.575 8.498-19.81h-9.878c-.158 0-.287-.038-.442-.056-.144-.017-.3-.03-.44-.054-.15-.032-.3-.067-.443-.112-.288-.088-.57-.19-.83-.33-.13-.064-.26-.143-.386-.22-.25-.155-.442-.35-.662-.553-.33-.306-.646-.638-.883-1.05L76.1 34.988c-1.265-2.192-.537-4.97 1.656-6.236.548-.316 1.177-.533 1.766-.607 1.767-.22 3.576.618 4.525 2.263l14.236 24.778h8.5c.092-.033.096.113.11-1.71C106.896 23.87 83.026 0 53.42 0z"/>
  <path d="M80.957 25.225c-3.104-.38-6.294 1.11-7.947 3.973l-26.6 46.08c-2.204 3.818-.892 8.778 2.925 10.983 3.818 2.205 8.778.838 10.982-2.98l26.6-46.08c2.204-3.82.893-8.723-2.925-10.927-.954-.55-2-.922-3.035-1.048z" fill="#30a9c8"/>
  <path d="M25.77 25.225c-1.034.127-2.025.497-2.98 1.048-3.817 2.204-5.184 7.11-2.98 10.927l26.656 46.08c2.204 3.818 7.11 5.13 10.926 2.925 3.82-2.204 5.13-7.11 2.925-10.927l-26.6-46.08c-1.653-2.864-4.842-4.352-7.946-3.973z" fill="#49d8fb"/>
  <path d="M182.853 32.034c-1.726 0-3.356 1.055-3.932 2.493l-14.67 37.21-14.674-37.21c-.575-1.44-2.205-2.494-3.932-2.494-2.397 0-4.315 2.014-4.315 4.41 0 .77.19 1.344.48 2.015l16.685 39.897c.863 1.918 2.877 3.548 5.275 3.548h.958c2.398 0 4.41-1.63 5.275-3.548l16.687-39.897c.287-.67.48-1.245.48-2.013 0-2.397-1.92-4.41-4.317-4.41m19.017 0c-2.397 0-4.315 1.917-4.315 4.41v41.142c0 2.397 1.918 4.315 4.316 4.315 2.495 0 4.413-1.918 4.413-4.316V36.444c0-2.493-1.918-4.41-4.41-4.41m5.273-14.77c0-2.685-2.206-4.89-4.89-4.89h-.576c-2.687 0-4.892 2.205-4.892 4.89v.384c0 2.686 2.205 4.892 4.89 4.892h.576c2.685 0 4.89-2.206 4.89-4.89v-.385m55.32 57.83l-17.36-23.018 13.81-12.372c1.343-1.343 1.63-2.493 1.63-3.26 0-1.92-.96-4.22-4.22-4.22-1.15 0-2.11.575-2.876 1.246l-22.825 21.1V15.347c0-2.4-2.014-4.413-4.41-4.413-2.4 0-4.317 2.014-4.317 4.412v62.24c0 2.397 1.918 4.315 4.316 4.315 2.397 0 4.41-1.918 4.41-4.316V65.212l8.345-7.576 16.495 22.44c.863 1.056 2.206 1.823 3.548 1.823 2.59 0 4.412-1.63 4.412-4.22 0-.96-.384-1.823-.96-2.59m53.118-38.645c0-2.397-1.917-4.41-4.315-4.41-1.918 0-3.26 1.15-4.028 2.876L292.18 71.355l-14.77-36.636c-.67-1.533-2.204-2.684-4.026-2.684-2.398 0-4.316 2.014-4.316 4.41 0 .673.192 1.344.384 1.824l18.03 43.923-6.234 16.016c-.192.48-.288 1.055-.288 1.535 0 2.3 1.822 4.22 4.124 4.22 2.014 0 3.26-1.246 4.028-2.972l26.18-62.912c.193-.48.29-1.055.29-1.63"/>
  <path d="M330.848 70.395h-.96c-2.972 0-5.37 2.397-5.37 5.37v.576c0 2.974 2.398 5.37 5.37 5.37h.96c2.973 0 5.37-2.396 5.37-5.37v-.575c0-2.973-2.397-5.37-5.37-5.37m37.955-38.84c-6.81 0-12.083 1.534-16.59 3.452-1.63.67-2.494 2.013-2.494 3.643 0 2.11 1.63 3.644 3.546 3.644.384 0 .863-.095 1.247-.19 3.548-1.152 7.384-2.303 12.755-2.303 8.63 0 12.85 3.358 12.85 11.893v.767h-11.604c-14.96 0-22.058 6.52-22.058 15.536 0 9.014 7.29 14.385 15.632 14.385 9.015 0 14.577-3.74 18.03-7.29v2.495c0 2.397 1.918 4.315 4.315 4.315 2.398 0 4.412-1.918 4.412-4.316V50.448c0-9.4-6.042-18.894-20.044-18.894m-3.45 43.156c-7.768 0-10.166-3.548-10.166-7.672 0-5.466 5.467-7.576 14.48-7.576h10.455v8.056c-3.26 3.74-8.824 7.192-14.77 7.192m42.935-42.676c-2.398 0-4.316 1.918-4.316 4.41v41.143c0 2.397 1.916 4.315 4.314 4.315 2.493 0 4.41-1.918 4.41-4.316V36.444c0-2.493-1.917-4.41-4.41-4.41m5.275-14.77c0-2.685-2.207-4.89-4.89-4.89h-.578c-2.685 0-4.89 2.205-4.89 4.89v.384c0 2.686 2.205 4.892 4.89 4.892h.576c2.684 0 4.89-2.206 4.89-4.89v-.385" fill="#bbb"/>
</svg>
