<svg xmlns="http://www.w3.org/2000/svg" width="100" height="100" viewBox="0 0 100 100">
  <g letter-spacing="0" word-spacing="0" fill-rule="evenodd" font-family="Futura">
    <path d="M49.974.002C22.28.002 0 22.332 0 50.028c0 .865.008 1.727.052 2.58h7.28L20.7 29.48c.74-1.282 2.04-2.072 3.407-2.168.82-.058 1.657.124 2.426.568 2.05 1.184 2.733 3.783 1.55 5.834L13.525 59.01c-.216.375-.528.65-.826.93-.196.184-.397.374-.62.516-.136.088-.268.187-.413.258l-.103.052c-.193.094-.41.142-.62.206-.133.04-.273.074-.412.103-.134.02-.278.034-.413.05-.154.017-.31.052-.466.052H1.24C6.293 83.45 26.127 100 49.973 100c10.212 0 19.672-3.043 27.57-8.26l20.546 5.68-7.176-18.69c3.17-3.463 7.923-11.765 7.95-18.534h-9.24c-.15 0-.27-.035-.414-.05-.135-.018-.28-.03-.413-.052-.14-.03-.28-.063-.413-.104-.268-.083-.53-.178-.774-.31-.124-.06-.244-.134-.362-.207-.235-.143-.413-.325-.62-.516-.308-.286-.603-.596-.825-.98L71.193 32.73c-1.185-2.05-.503-4.65 1.548-5.833.514-.296 1.102-.498 1.653-.568 1.654-.208 3.346.578 4.234 2.116l13.32 23.18h7.95c.086-.03.09.106.103-1.6C100 22.33 77.67 0 49.974 0z" />
    <path d="M75.734 23.597c-2.904-.354-5.888 1.038-7.434 3.717L43.416 70.422c-2.062 3.572-.835 8.212 2.736 10.274 3.572 2.062 8.212.784 10.274-2.788L81.31 34.8c2.062-3.572.835-8.16-2.736-10.222-.893-.515-1.872-.863-2.84-.98z" fill="#30a9c8"/>
    <path d="M24.108 23.597c-.968.12-1.895.466-2.788.98-3.57 2.063-4.85 6.65-2.788 10.223l24.936 43.108c2.062 3.57 6.65 4.798 10.222 2.736 3.57-2.062 4.798-6.65 2.736-10.222L31.542 27.314c-1.547-2.678-4.53-4.07-7.434-3.717z" fill="#49d8fb" />
  </g>
</svg>
