<svg xmlns="http://www.w3.org/2000/svg" width="100" height="100" viewBox="0 0 100 100"><path d="M-1252.803 480.2c1.24.716 1.666 2.3.95 3.543l-8.83 15.29c-.716 1.242-2.3 1.667-3.542.95-1.242-.717-1.666-2.302-.95-3.543l8.83-15.29c.715-1.243 2.3-1.667 3.542-.95z" fill="#d10053" /><path d="M49.974.002C22.28.002 0 22.332 0 50.028c0 .865.008 1.727.05 2.58h7.28L20.702 29.48c.74-1.28 2.04-2.07 3.407-2.167.82-.057 1.656.124 2.425.568 2.05 1.185 2.733 3.784 1.55 5.835L13.525 59.01c-.216.375-.528.65-.826.93-.197.184-.398.374-.62.516-.137.088-.27.188-.414.26-.034.015-.068.033-.103.05-.193.094-.41.142-.62.206-.133.042-.273.075-.412.103-.133.02-.277.034-.412.05-.154.017-.31.052-.466.052H1.24C6.293 83.45 26.127 100 49.973 100c10.212 0 19.672-3.043 27.57-8.26l20.546 5.68-7.177-18.69c3.17-3.463 7.923-11.765 7.95-18.534h-9.24c-.15 0-.27-.034-.414-.05-.136-.018-.28-.03-.414-.052-.14-.03-.28-.063-.413-.104-.268-.083-.53-.178-.774-.31-.125-.06-.245-.134-.363-.206-.235-.144-.413-.326-.62-.517-.308-.285-.603-.596-.825-.98L71.192 32.73c-1.184-2.05-.502-4.648 1.55-5.833.513-.296 1.1-.498 1.652-.568 1.654-.208 3.346.577 4.234 2.115l13.32 23.18h7.95c.086-.03.09.106.103-1.6C100 22.33 77.67 0 49.975 0z" opacity=".98"/><path d="M75.734 23.597c-2.904-.354-5.888 1.04-7.434 3.718L43.416 70.422c-2.062 3.572-.835 8.212 2.736 10.274 3.572 2.062 8.212.784 10.274-2.788L81.31 34.8c2.062-3.57.835-8.16-2.736-10.222-.893-.515-1.872-.863-2.84-.98z" fill="#30a9c8"/><path d="M24.108 23.597c-.968.12-1.895.466-2.788.98-3.57 2.063-4.85 6.652-2.788 10.223l24.936 43.108c2.062 3.572 6.65 4.798 10.222 2.736 3.57-2.062 4.798-6.65 2.736-10.222L31.542 27.315c-1.547-2.68-4.53-4.072-7.434-3.718z" fill="#49d8fb"/></svg>
