<?xml version="1.0" encoding="UTF-8" standalone="no"?>
<svg
   xmlns:dc="http://purl.org/dc/elements/1.1/"
   xmlns:cc="http://creativecommons.org/ns#"
   xmlns:rdf="http://www.w3.org/1999/02/22-rdf-syntax-ns#"
   xmlns:svg="http://www.w3.org/2000/svg"
   xmlns="http://www.w3.org/2000/svg"
   xmlns:xlink="http://www.w3.org/1999/xlink"
   xmlns:sodipodi="http://sodipodi.sourceforge.net/DTD/sodipodi-0.dtd"
   xmlns:inkscape="http://www.inkscape.org/namespaces/inkscape"
   width="940px"
   height="738px"
   viewBox="0 0 940 738"
   version="1.1"
   id="svg2"
   inkscape:version="0.48.5 r10040"
   sodipodi:docname="Robots.svg">
  <rect
     style="fill:#f2f2f2;fill-opacity:1;fill-rule:evenodd;stroke:none"
     id="rect5619"
     width="156.72179"
     height="156.72179"
     x="109.82322"
     y="416.77707"
     inkscape:export-filename="/Users/jean-marie/Pertimm/voqal.ai/platform/webapp/app/assets/images/default_avatar.png"
     inkscape:export-xdpi="137.82001"
     inkscape:export-ydpi="137.82001" />
  <metadata
     id="metadata96">
    <rdf:RDF>
      <cc:Work
         rdf:about="">
        <dc:format>image/svg+xml</dc:format>
        <dc:type
           rdf:resource="http://purl.org/dc/dcmitype/StillImage" />
        <dc:title>Robots</dc:title>
      </cc:Work>
    </rdf:RDF>
  </metadata>
  <sodipodi:namedview
     pagecolor="#ffffff"
     bordercolor="#666666"
     borderopacity="1"
     objecttolerance="10"
     gridtolerance="10"
     guidetolerance="10"
     inkscape:pageopacity="0"
     inkscape:pageshadow="2"
     inkscape:window-width="1410"
     inkscape:window-height="855"
     id="namedview94"
     showgrid="false"
     inkscape:zoom="0.46472159"
     inkscape:cx="704.46177"
     inkscape:cy="352.2279"
     inkscape:window-x="0"
     inkscape:window-y="0"
     inkscape:window-maximized="0"
     inkscape:current-layer="svg2" />
  <!-- Generator: Sketch 46.2 (44496) - http://www.bohemiancoding.com/sketch -->
  <title
     id="title4">Robots</title>
  <desc
     id="desc6">Created with Sketch.</desc>
  <defs
     id="defs8">
    <linearGradient
       id="linearGradient4087">
      <stop
         style="stop-color:#555555;stop-opacity:1;"
         offset="0"
         id="stop4089" />
      <stop
         style="stop-color:#333333;stop-opacity:1;"
         offset="1"
         id="stop4091" />
    </linearGradient>
    <linearGradient
       inkscape:collect="always"
       xlink:href="#linearGradient4087"
       id="linearGradient4214"
       x1="1196.7349"
       y1="250.00272"
       x2="1296.7349"
       y2="250.00272"
       gradientUnits="userSpaceOnUse" />
    <linearGradient
       id="linearGradient4107">
      <stop
         id="stop4109"
         offset="0"
         style="stop-color:#ff0303;stop-opacity:1;" />
      <stop
         style="stop-color:#ff0000;stop-opacity:1;"
         offset="0.5"
         id="stop4115" />
      <stop
         id="stop4111"
         offset="1"
         style="stop-color:#a10000;stop-opacity:1;" />
    </linearGradient>
    <linearGradient
       id="linearGradient5759">
      <stop
         id="stop5761"
         offset="0"
         style="stop-color:#575757;stop-opacity:1;" />
      <stop
         id="stop5763"
         offset="1"
         style="stop-color:#000000;stop-opacity:1;" />
    </linearGradient>
    <linearGradient
       id="linearGradient4569">
      <stop
         id="stop4571"
         offset="0"
         style="stop-color:#b73b2f;stop-opacity:1;" />
      <stop
         id="stop4573"
         offset="1"
         style="stop-color:#451184;stop-opacity:1;" />
    </linearGradient>
    <linearGradient
       inkscape:collect="always"
       xlink:href="#linearGradient4087"
       id="linearGradient5462"
       gradientUnits="userSpaceOnUse"
       x1="1042.0833"
       y1="266.76227"
       x2="1059.7461"
       y2="266.49329" />
    <linearGradient
       inkscape:collect="always"
       xlink:href="#linearGradient4087"
       id="linearGradient5464"
       gradientUnits="userSpaceOnUse"
       gradientTransform="translate(0,-2.6627489)"
       x1="1039.6631"
       y1="215.73365"
       x2="1106.8478"
       y2="215.73364" />
    <linearGradient
       inkscape:collect="always"
       xlink:href="#linearGradient4087"
       id="linearGradient5466"
       gradientUnits="userSpaceOnUse"
       x1="1042.0833"
       y1="266.76227"
       x2="1059.7461"
       y2="266.49329" />
    <linearGradient
       inkscape:collect="always"
       xlink:href="#linearGradient4087"
       id="linearGradient5468"
       gradientUnits="userSpaceOnUse"
       gradientTransform="translate(32.713772,-10.760785)"
       x1="1196.7349"
       y1="250.00272"
       x2="1268.2054"
       y2="250.00272" />
    <linearGradient
       inkscape:collect="always"
       xlink:href="#linearGradient4087"
       id="linearGradient5470"
       gradientUnits="userSpaceOnUse"
       x1="1042.0833"
       y1="266.76227"
       x2="1059.7461"
       y2="266.49329" />
    <linearGradient
       inkscape:collect="always"
       xlink:href="#linearGradient4087"
       id="linearGradient5472"
       gradientUnits="userSpaceOnUse"
       gradientTransform="translate(32.713849,211.63808)"
       x1="1196.7349"
       y1="250.00272"
       x2="1268.2054"
       y2="250.00272" />
    <linearGradient
       inkscape:collect="always"
       xlink:href="#linearGradient4087"
       id="linearGradient5474"
       gradientUnits="userSpaceOnUse"
       x1="1042.0833"
       y1="266.76227"
       x2="1059.7461"
       y2="266.49329" />
    <linearGradient
       inkscape:collect="always"
       xlink:href="#linearGradient4087"
       id="linearGradient5476"
       gradientUnits="userSpaceOnUse"
       gradientTransform="translate(-158.54202,211.63806)"
       x1="1196.7349"
       y1="250.00272"
       x2="1268.2054"
       y2="250.00272" />
    <linearGradient
       inkscape:collect="always"
       xlink:href="#linearGradient4087"
       id="linearGradient5628"
       gradientUnits="userSpaceOnUse"
       gradientTransform="translate(-25.689395,329.79086)"
       x1="1196.7349"
       y1="250.00272"
       x2="1268.2054"
       y2="250.00272" />
    <linearGradient
       inkscape:collect="always"
       xlink:href="#linearGradient4087"
       id="linearGradient5643"
       gradientUnits="userSpaceOnUse"
       gradientTransform="translate(507.13649,37.888917)"
       x1="1039.6631"
       y1="215.73365"
       x2="1106.8478"
       y2="215.73364" />
    <linearGradient
       inkscape:collect="always"
       xlink:href="#linearGradient4087"
       id="linearGradient5653"
       gradientUnits="userSpaceOnUse"
       x1="1042.0833"
       y1="266.76227"
       x2="1059.7461"
       y2="266.49329"
       gradientTransform="translate(507.13649,37.888917)" />
    <linearGradient
       inkscape:collect="always"
       xlink:href="#linearGradient4087"
       id="linearGradient5665"
       gradientUnits="userSpaceOnUse"
       gradientTransform="translate(161.11262,29.79088)"
       x1="1196.7349"
       y1="250.00272"
       x2="1268.2054"
       y2="250.00272" />
    <linearGradient
       inkscape:collect="always"
       xlink:href="#linearGradient4087"
       id="linearGradient5675"
       gradientUnits="userSpaceOnUse"
       x1="1042.0833"
       y1="266.76227"
       x2="1059.7461"
       y2="266.49329"
       gradientTransform="translate(318.35183,36.26931)" />
    <linearGradient
       inkscape:collect="always"
       xlink:href="#linearGradient4087"
       id="linearGradient5687"
       gradientUnits="userSpaceOnUse"
       gradientTransform="translate(-26.36945,29.79086)"
       x1="1196.7349"
       y1="250.00272"
       x2="1268.2054"
       y2="250.00272" />
    <linearGradient
       inkscape:collect="always"
       xlink:href="#linearGradient4087"
       id="linearGradient5697"
       gradientUnits="userSpaceOnUse"
       x1="1042.0833"
       y1="266.76227"
       x2="1059.7461"
       y2="266.49329"
       gradientTransform="translate(130.86976,36.26929)" />
    <linearGradient
       inkscape:collect="always"
       xlink:href="#linearGradient4087"
       id="linearGradient5711"
       gradientUnits="userSpaceOnUse"
       gradientTransform="translate(536.07633,29.790881)"
       x1="1196.7349"
       y1="250.00272"
       x2="1268.2054"
       y2="250.00272" />
    <linearGradient
       inkscape:collect="always"
       xlink:href="#linearGradient4087"
       id="linearGradient5721"
       gradientUnits="userSpaceOnUse"
       x1="1042.0833"
       y1="266.76227"
       x2="1059.7461"
       y2="266.49329"
       gradientTransform="translate(693.31554,36.26931)" />
  </defs>
  <rect
     inkscape:export-ydpi="90"
     inkscape:export-xdpi="90"
     inkscape:export-filename="/Users/jean-marie/Desktop/voqal/specs/robot-close-eyes.png"
     style="fill:#ffffff;fill-opacity:0;fill-rule:evenodd;stroke:none"
     id="rect3093"
     width="140"
     height="200"
     x="233.92409"
     y="240.8389" />
  <rect
     inkscape:export-ydpi="90"
     inkscape:export-xdpi="90"
     inkscape:export-filename="/Users/jean-marie/Desktop/voqal/specs/robot-happy.png"
     style="fill:#ffffff;fill-opacity:0;fill-rule:evenodd;stroke:none"
     id="rect3097"
     width="140"
     height="200"
     x="590.6355"
     y="240.8389" />
  <text
     xml:space="preserve"
     style="font-size:40px;font-style:normal;font-variant:normal;font-weight:normal;font-stretch:normal;line-height:125%;letter-spacing:0px;word-spacing:0px;fill:#000000;fill-opacity:1;stroke:none;font-family:Sans;-inkscape-font-specification:Futura Medium"
     x="1233.1989"
     y="431.5582"
     id="text3968"
     sodipodi:linespacing="125%"><tspan
       sodipodi:role="line"
       id="tspan3970"
       x="1233.1989"
       y="431.5582"
       style="font-style:normal;font-variant:normal;font-weight:500;font-stretch:normal;font-family:Futura;-inkscape-font-specification:Futura Medium" /></text>
  <path
     sodipodi:type="inkscape:offset"
     inkscape:radius="0"
     inkscape:original="M 686.6875 1073.125 C 685.25391 1073.125 684.09375 1074.2852 684.09375 1075.7188 L 684.09375 1093.375 C 684.09375 1094.8086 685.25391 1095.9688 686.6875 1095.9688 C 688.12109 1095.9688 689.28125 1094.8086 689.28125 1093.375 L 689.28125 1075.7188 C 689.28125 1074.2852 688.12109 1073.125 686.6875 1073.125 z "
     style="font-size:40px;font-style:normal;font-variant:normal;font-weight:500;font-stretch:normal;line-height:125%;letter-spacing:0px;word-spacing:0px;fill:#d10053;fill-opacity:1;fill-rule:evenodd;stroke:none;font-family:Futura;-inkscape-font-specification:Futura Medium"
     id="path5259"
     d="m 686.6875,1073.125 c -1.43359,0 -2.59375,1.1602 -2.59375,2.5938 l 0,17.6562 c 0,1.4336 1.16016,2.5938 2.59375,2.5938 1.43359,0 2.59375,-1.1602 2.59375,-2.5938 l 0,-17.6562 c 0,-1.4336 -1.16016,-2.5938 -2.59375,-2.5938 z"
     transform="matrix(-0.8660254,-0.5,-0.5,0.8660254,0,0)" />
  <g
     id="g4478"
     transform="matrix(1.7659653,0,0,1.7659653,1291.9494,-236.27419)" />
  <g
     id="g5776"
     inkscape:export-filename="/Users/jean-marie/Pertimm/voqal.ai/platform/webapp/app/assets/images/robot-happy@2x.png"
     inkscape:export-xdpi="105.39"
     inkscape:export-ydpi="105.39"
     transform="translate(-1032.8765,-47.340172)">
    <rect
       ry="0"
       rx="0"
       y="179.8674"
       x="1152.1381"
       height="190.43661"
       width="136.64095"
       id="rect4279"
       style="opacity:0;fill:#cccccc;fill-opacity:1;fill-rule:evenodd;stroke:none" />
    <path
       sodipodi:nodetypes="sssssssssssssssssss"
       inkscape:connector-curvature="0"
       id="path4285"
       d="m 1191.1182,291.95914 c -0.2494,-0.34114 -0.5931,-0.66553 -1.0292,-0.92036 -0.8721,-0.50965 -1.9728,-0.50074 -2.688,-0.27075 -1.4305,0.45999 -2.1107,1.27724 -2.9069,2.19799 -1.5924,1.84149 -3.171,4.47783 -4.7002,7.33134 -1.5293,2.85351 -2.9521,5.88569 -3.9179,8.35364 -0.4829,1.23397 -0.8559,2.32519 -1.0873,3.27861 -0.1158,0.47671 -0.1894,0.88951 -0.2048,1.43004 -0.015,0.54053 -0.1949,1.54372 1.0833,2.53632 1.0496,0.81506 1.6853,0.61027 2.1686,0.58427 0.4833,-0.026 0.8851,-0.11228 1.3342,-0.21873 0.8983,-0.21291 1.9131,-0.5476 3.0633,-0.97645 2.3004,-0.85769 5.1101,-2.07608 7.7918,-3.42037 2.6817,-1.34428 5.1941,-2.77003 7.0428,-4.13195 0.9243,-0.68095 1.6733,-1.28151 2.3114,-2.24089 0.3191,-0.47969 0.6851,-1.12522 0.6482,-2.09998 -0.037,-0.97475 -0.7168,-2.01719 -1.3955,-2.45878 -3.0151,-1.96151 -5.2665,-3.27792 -6.9751,-7.93805 -0.1218,-0.33225 -0.2893,-0.69475 -0.5387,-1.0359 z"
       style="font-size:medium;font-style:normal;font-variant:normal;font-weight:normal;font-stretch:normal;text-indent:0;text-align:start;text-decoration:none;line-height:normal;letter-spacing:normal;word-spacing:normal;text-transform:none;direction:ltr;block-progression:tb;writing-mode:lr-tb;text-anchor:start;baseline-shift:baseline;color:#000000;fill:url(#linearGradient5697);fill-opacity:1;fill-rule:nonzero;stroke:none;stroke-width:5;marker:none;visibility:visible;display:inline;overflow:visible;enable-background:accumulate;font-family:Sans;-inkscape-font-specification:Sans" />
    <path
       sodipodi:nodetypes="ccccscccccccc"
       inkscape:connector-curvature="0"
       id="path4287"
       d="m 1188.808,290.60807 c -0.1723,-0.0119 -0.3365,0.0205 -0.5,0.0312 -0.3704,1.65195 -0.2374,3.46964 0.062,5.4375 0.6221,4.08274 2.2305,8.99937 4.4496,14.29332 1.624,-0.89803 3.163,-1.75309 4.3629,-2.63707 0.9243,-0.68095 1.6744,-1.29062 2.3125,-2.25 0.3191,-0.47969 0.6931,-1.11899 0.6562,-2.09375 -0.037,-0.97475 -0.7275,-2.02716 -1.4062,-2.46875 -3.0151,-1.96151 -5.2601,-3.27737 -6.9688,-7.9375 -0.1217,-0.33225 -0.2818,-0.6901 -0.5312,-1.03125 -0.2494,-0.34114 -0.5952,-0.68267 -1.0312,-0.9375 -0.4361,-0.25482 -0.9327,-0.37352 -1.4063,-0.40625 z"
       style="font-size:medium;font-style:normal;font-variant:normal;font-weight:normal;font-stretch:normal;text-indent:0;text-align:start;text-decoration:none;line-height:normal;letter-spacing:normal;word-spacing:normal;text-transform:none;direction:ltr;block-progression:tb;writing-mode:lr-tb;text-anchor:start;baseline-shift:baseline;color:#000000;fill:#000000;fill-opacity:1;fill-rule:nonzero;stroke:none;stroke-width:5;marker:none;visibility:visible;display:inline;overflow:visible;enable-background:accumulate;font-family:Sans;-inkscape-font-specification:Sans" />
    <path
       style="font-size:medium;font-style:normal;font-variant:normal;font-weight:normal;font-stretch:normal;text-indent:0;text-align:start;text-decoration:none;line-height:normal;letter-spacing:normal;word-spacing:normal;text-transform:none;direction:ltr;block-progression:tb;writing-mode:lr-tb;text-anchor:start;baseline-shift:baseline;color:#000000;fill:url(#linearGradient5687);fill-opacity:1;fill-rule:nonzero;stroke:none;stroke-width:4;marker:none;visibility:visible;display:inline;overflow:visible;enable-background:accumulate;font-family:Sans;-inkscape-font-specification:Sans"
       d="m 1178.8805,190.41586 c -0.2588,0.0233 -0.5054,0.0887 -0.75,0.21875 -0.9783,0.52017 -1.3327,1.74044 -0.8125,2.71875 l 10.7813,20.3125 c 0.057,0.10834 0.1143,0.18824 0.1874,0.28125 -12.0126,6.45061 -17.9062,16.06701 -17.9062,24.0625 l 0,27.53125 c 0,3.25161 1.5132,6.24387 4.0312,8.71875 2.5182,2.47488 6.0393,4.51215 10.4063,6.1875 8.7341,3.3507 20.9192,5.25 35.5625,5.25 14.5755,0 26.7224,-1.14382 35.4688,-3.90625 4.373,-1.38122 7.9077,-3.14589 10.4687,-5.5625 2.561,-2.41661 4.0625,-5.57497 4.0625,-9.09375 l 0,-28.0625 c 0,-14.04011 -16.3401,-32.5502 -50,-32.375 -11.542,0.0601 -21.082,2.17743 -28.5938,5.5 -0.038,-0.13828 -0.086,-0.27405 -0.1562,-0.40625 l -10.7812,-20.3125 c -0.3903,-0.73373 -1.1924,-1.13236 -1.9688,-1.0625 z m 18.5938,96.8125 c -0.3495,0.0208 -0.6888,0.0523 -1.0313,0.125 -1.37,0.29056 -2.6285,1.15834 -3.375,2.28125 -1.4931,2.24583 -1.4245,4.88521 -0.9687,7.875 0.9112,5.97958 4.02,13.81033 7.9062,21.875 3.8862,8.06467 8.5714,16.26476 12.7812,22.46875 2.1049,3.10199 4.0712,5.69017 5.8438,7.59375 0.8863,0.95179 1.7208,1.73471 2.5938,2.34375 0.8728,0.60904 1.8176,1.23307 3.3124,1.0625 1.2889,-0.14707 2.0793,-0.7603 2.8438,-1.40625 0.7645,-0.64595 1.4897,-1.43134 2.25,-2.375 1.5206,-1.88732 3.1756,-4.39782 4.9062,-7.34375 3.4611,-5.89186 7.2211,-13.53758 10.375,-21.125 3.154,-7.58742 5.6806,-15.06124 6.625,-20.8125 0.4721,-2.87563 0.6466,-5.29863 -0.094,-7.5 -0.3701,-1.10068 -1.0592,-2.21698 -2.1875,-2.90625 -1.1283,-0.68927 -2.5043,-0.81256 -3.75,-0.59375 -13.219,2.3219 -25.739,4.56115 -44.8125,-1.125 -0.7417,-0.22112 -1.4491,-0.37543 -2.1563,-0.4375 -0.3535,-0.031 -0.713,-0.0208 -1.0624,0 z"
       id="path4289"
       inkscape:connector-curvature="0" />
    <g
       id="g4291"
       transform="translate(131.25016,35.8889)">
      <g
         id="g4293"
         transform="translate(0.65510873,0)">
        <path
           sodipodi:nodetypes="ssssssssscsssssssss"
           inkscape:connector-curvature="0"
           id="path4295"
           d="m 1111.8246,263.63976 c -0.323,0.27257 -0.6226,0.63809 -0.8464,1.09086 -0.4475,0.90556 -0.3619,2.00293 -0.083,2.70038 0.5587,1.3949 1.4214,2.01647 2.3954,2.7465 1.9481,1.46005 4.6882,2.85091 7.6414,4.17738 2.9532,1.32647 6.0773,2.53428 8.6066,3.32558 1.2646,0.39565 2.3564,0.67035 3.3236,0.83469 0.4836,0.0822 0.9234,0.14819 1.4637,0.12577 0.5403,-0.0224 1.5094,0.0883 2.4104,-1.25603 0.7399,-1.10389 0.5354,-1.72526 0.4757,-2.20556 -0.06,-0.4803 -0.1737,-0.87515 -0.3112,-1.31576 -0.2751,-0.88122 -0.6797,-1.87016 -1.1878,-2.98767 -1.016,-2.23503 -2.4275,-4.95281 -3.9555,-7.53423 -1.5281,-2.58142 -3.1485,-5.00954 -4.6361,-6.75871 -0.7437,-0.87459 -1.3951,-1.57984 -2.3966,-2.14948 -0.5008,-0.28482 -1.1474,-0.58365 -2.1173,-0.47883 -0.9698,0.10483 -1.9622,0.85575 -2.3554,1.56367 -1.7464,3.14451 -2.9026,5.48225 -7.4322,7.5118 -0.3229,0.1447 -0.6728,0.33708 -0.9957,0.60964 z"
           style="font-size:medium;font-style:normal;font-variant:normal;font-weight:normal;font-stretch:normal;text-indent:0;text-align:start;text-decoration:none;line-height:normal;letter-spacing:normal;word-spacing:normal;text-transform:none;direction:ltr;block-progression:tb;writing-mode:lr-tb;text-anchor:start;baseline-shift:baseline;color:#000000;fill:#333333;fill-opacity:1;fill-rule:nonzero;stroke:none;stroke-width:5;marker:none;visibility:visible;display:inline;overflow:visible;enable-background:accumulate;font-family:Sans;-inkscape-font-specification:Sans" />
        <path
           inkscape:connector-curvature="0"
           id="path4297"
           d="m 1122.6341,253.97219 c -0.9698,0.10483 -1.9506,0.85458 -2.3437,1.5625 -1.7464,3.14451 -2.908,5.47045 -7.4376,7.5 -0.3228,0.1447 -0.677,0.35244 -1,0.625 -0.323,0.27257 -0.6199,0.64098 -0.8437,1.09375 -0.4475,0.90556 -0.3727,1.99005 -0.094,2.6875 0.5587,1.3949 1.4322,2.01997 2.4062,2.75 1.6946,1.27006 3.9879,2.48774 6.5,3.65625 1.6092,-4.58197 2.8121,-8.88119 3.4062,-12.5 0.4632,-2.82123 0.6305,-5.20697 -0.062,-7.375 -0.1713,-0.008 -0.335,-0.0212 -0.5313,0 z"
           style="font-size:medium;font-style:normal;font-variant:normal;font-weight:normal;font-stretch:normal;text-indent:0;text-align:start;text-decoration:none;line-height:normal;letter-spacing:normal;word-spacing:normal;text-transform:none;direction:ltr;block-progression:tb;writing-mode:lr-tb;text-anchor:start;baseline-shift:baseline;color:#000000;fill:#4d4d4d;fill-opacity:1;fill-rule:nonzero;stroke:none;stroke-width:5;marker:none;visibility:visible;display:inline;overflow:visible;enable-background:accumulate;font-family:Sans;-inkscape-font-specification:Sans" />
      </g>
    </g>
    <path
       style="font-size:medium;font-style:normal;font-variant:normal;font-weight:normal;font-stretch:normal;text-indent:0;text-align:start;text-decoration:none;line-height:normal;letter-spacing:normal;word-spacing:normal;text-transform:none;direction:ltr;block-progression:tb;writing-mode:lr-tb;text-anchor:start;baseline-shift:baseline;color:#000000;fill:#111111;fill-opacity:1;fill-rule:nonzero;stroke:none;stroke-width:4;marker:none;visibility:visible;display:inline;overflow:visible;enable-background:accumulate;font-family:Sans;-inkscape-font-specification:Sans"
       d="m 1265.065,192.08197 c -0.6414,0.0112 -1.2791,0.32547 -1.6562,0.90625 l -12.5313,19.28125 c -0.1821,0.28038 -0.2513,0.59609 -0.2813,0.90625 -2.8919,-1.44392 -6.0919,-2.71585 -9.625,-3.71875 0.3559,1.90195 0.8574,3.82667 1.1563,5.71875 0.8805,5.57289 1.5179,11.10018 1.9375,16.59375 0.4196,5.49357 0.6192,10.95131 0.625,16.375 0.01,5.42369 -0.1703,10.82422 -0.5312,16.1875 -0.3613,5.36328 -0.913,10.68768 -1.5938,16 -0.1836,1.43217 -0.4517,2.85235 -0.6562,4.28125 5.2318,-0.63089 9.9658,-1.50547 13.9062,-2.75 4.3731,-1.38122 7.9077,-3.14589 10.4688,-5.5625 2.5606,-2.41661 4.0626,-5.57497 4.0624,-9.09375 l 0,-28.0625 c 0,-8.08991 -5.4961,-17.60646 -16.5624,-24.21875 0.1696,-0.13309 0.3444,-0.27729 0.4687,-0.46875 l 12.5,-19.28125 c 0.6035,-0.92925 0.3667,-2.17779 -0.5625,-2.78125 -0.3485,-0.2263 -0.7402,-0.31921 -1.125,-0.3125 z m -18.6562,96.6875 c -0.3219,0.008 -0.626,0.039 -0.9376,0.0937 -1.4483,0.25443 -2.9025,0.44538 -4.3437,0.6875 -0.3543,2.21663 -0.6313,4.44644 -1.0313,6.65625 -0.9535,5.27082 -2.008,10.51123 -3.1874,15.75 -1.1796,5.23877 -2.4856,10.47132 -3.8438,15.6875 -1.3582,5.21618 -2.7915,10.42195 -4.2812,15.625 -0.8741,3.05207 -1.8437,6.10612 -2.75,9.15625 0.4885,-0.25921 0.9082,-0.56461 1.3124,-0.90625 0.7645,-0.64595 1.4898,-1.43134 2.25,-2.375 1.5209,-1.88732 3.1757,-4.39782 4.9063,-7.34375 3.461,-5.89186 7.221,-13.53758 10.375,-21.125 3.1539,-7.58742 5.6806,-15.06124 6.625,-20.8125 0.4721,-2.87563 0.6468,-5.29863 -0.094,-7.5 -0.3705,-1.10068 -1.0591,-2.21698 -2.1876,-2.90625 -0.846,-0.51695 -1.8471,-0.71283 -2.8124,-0.6875 z"
       id="path4299"
       inkscape:connector-curvature="0" />
    <rect
       ry="13.155108"
       id="rect4301"
       x="1181.3655"
       y="240.39157"
       width="77"
       height="26.310217"
       rx="13.155108"
       style="fill:#ffffff;stroke:none" />
    <path
       transform="translate(129.59155,37.8889)"
       d="m 1115.3113,323.75235 c 0,1.4706 -9.1966,2.66275 -20.5412,2.66275 -11.3446,0 -20.5412,-1.19215 -20.5412,-2.66275 0,-1.4706 9.1966,-2.66275 20.5412,-2.66275 11.3446,0 20.5412,1.19215 20.5412,2.66275 z"
       sodipodi:ry="2.6627488"
       sodipodi:rx="20.541206"
       sodipodi:cy="323.75235"
       sodipodi:cx="1094.7701"
       id="path4311"
       style="fill:#e6e6e6;fill-opacity:1;fill-rule:evenodd;stroke:none"
       sodipodi:type="arc" />
    <path
       d="m 1193.8441,251.17852 c 3.4562,-1.8773 8.1193,-2.50737 12.5784,0.33328 4.4592,2.84064 2.3327,5.44711 0,3.23131 -2.3326,-2.2158 -9.9946,-2.16892 -13.1919,0 -3.1973,2.16892 -2.8426,-1.68729 0.6135,-3.56459 z"
       id="path4327"
       inkscape:connector-curvature="0"
       style="fill:#000000;stroke:none" />
    <path
       d="m 1233.8441,251.17852 c 3.4562,-1.8773 8.1193,-2.50737 12.5784,0.33328 4.4592,2.84064 2.3327,5.44711 0,3.23131 -2.3326,-2.2158 -9.9946,-2.16892 -13.1919,0 -3.1973,2.16892 -2.8426,-1.68729 0.6135,-3.56459 z"
       id="path4329"
       inkscape:connector-curvature="0"
       style="fill:#000000;stroke:none" />
    <path
       style="font-size:40px;font-style:normal;font-variant:normal;font-weight:500;font-stretch:normal;line-height:125%;letter-spacing:0px;word-spacing:0px;opacity:0.98000004;fill:#49d8fb;fill-opacity:1;fill-rule:evenodd;stroke:none;font-family:Futura;-inkscape-font-specification:Futura Medium"
       d="m 1222.6452,302.51489 c -4.1708,0 -7.5241,3.36203 -7.5241,7.53287 0,0.13029 0,0.25873 0,0.3874 l 1.0962,0 1.6247,-2.80884 c -0.2143,-0.51475 -0.015,-1.12712 0.4842,-1.41324 0.1338,-0.0776 0.2724,-0.12744 0.4182,-0.14528 0.4374,-0.0534 0.8898,0.15579 1.1227,0.55913 l 2.7693,4.79444 2.7649,-4.79444 c 0.2328,-0.40344 0.6809,-0.61245 1.1182,-0.55913 0.1449,0.0177 0.2926,0.0677 0.4271,0.14528 0.4929,0.28467 0.6897,0.89138 0.4799,1.40443 l 1.5364,2.67238 1.1975,0 c 0.016,-0.005 0.016,0.0143 0.016,-0.24213 0,-4.17084 -3.3621,-7.53287 -7.5328,-7.53287 z m -4.0593,6.40139 -1.4307,2.48306 c -0.032,0.0562 -0.078,0.0986 -0.1227,0.14081 -0.028,0.0277 -0.059,0.0578 -0.092,0.0793 -0.02,0.0127 -0.04,0.0289 -0.062,0.0397 0,0.003 -0.015,0.002 -0.018,0.005 -0.029,0.0143 -0.06,0.0212 -0.092,0.0309 -0.02,0.007 -0.04,0.0127 -0.062,0.0177 -0.02,0.003 -0.042,0.007 -0.062,0.008 -0.022,0.003 -0.047,0.005 -0.07,0.005 l -1.2678,0 c 0.7612,3.35426 3.7478,5.84665 7.3391,5.84665 1.538,0 2.9624,-0.4559 4.1516,-1.24154 l 3.0951,0.8541 -1.0787,-2.81324 c 0.4774,-0.52159 1.1891,-1.77187 1.1931,-2.79126 l -1.3913,0 c -0.022,0 -0.04,-0.007 -0.062,-0.01 -0.02,-0.003 -0.042,-0.007 -0.062,-0.01 -0.021,-0.005 -0.042,-0.007 -0.062,-0.0127 -0.04,-0.0127 -0.078,-0.0285 -0.1146,-0.0484 -0.019,-0.01 -0.04,-0.0199 -0.057,-0.0309 -0.035,-0.0217 -0.06,-0.0504 -0.092,-0.0793 -0.046,-0.043 -0.089,-0.0873 -0.1226,-0.14527 l -1.3471,-2.32898 -3.0774,5.33156 c 0,0.008 -0.016,0.0143 -0.017,0.022 -0.02,0.032 -0.04,0.0631 -0.062,0.0924 -0.067,0.0875 -0.145,0.16666 -0.2378,0.23335 0,0.003 -0.016,0.007 -0.016,0.008 -0.027,0.0188 -0.054,0.0362 -0.085,0.0529 -0.033,0.0194 -0.067,0.0372 -0.1019,0.0529 -0.033,0.0159 -0.07,0.0275 -0.1051,0.0397 -0.2988,0.10227 -0.6374,0.0848 -0.929,-0.0836 -0.2194,-0.12663 -0.3789,-0.31854 -0.471,-0.53712 l -3.0115,-5.21267 z"
       id="path3163"
       inkscape:connector-curvature="0"
       inkscape:export-filename="/Users/jean-marie/Pertimm/voqal.ai/robots.png"
       inkscape:export-xdpi="333.70966"
       inkscape:export-ydpi="333.70966" />
  </g>
  <g
     id="g5760"
     inkscape:export-filename="/Users/jean-marie/Pertimm/voqal.ai/platform/webapp/app/assets/images/robot-no-watching.png"
     inkscape:export-xdpi="52.689999"
     inkscape:export-ydpi="52.689999"
     transform="translate(-1032.8765,-47.340172)">
    <rect
       style="opacity:0;fill:#cccccc;fill-opacity:1;fill-rule:evenodd;stroke:none"
       id="rect4348"
       width="136.64095"
       height="190.43661"
       x="1339.6201"
       y="179.8674"
       rx="0"
       ry="0" />
    <path
       style="font-size:medium;font-style:normal;font-variant:normal;font-weight:normal;font-stretch:normal;text-indent:0;text-align:start;text-decoration:none;line-height:normal;letter-spacing:normal;word-spacing:normal;text-transform:none;direction:ltr;block-progression:tb;writing-mode:lr-tb;text-anchor:start;baseline-shift:baseline;color:#000000;fill:url(#linearGradient5675);fill-opacity:1;fill-rule:nonzero;stroke:none;stroke-width:5;marker:none;visibility:visible;display:inline;overflow:visible;enable-background:accumulate;font-family:Sans;-inkscape-font-specification:Sans"
       d="m 1378.6002,291.95916 c -0.2494,-0.34114 -0.5931,-0.66553 -1.0292,-0.92036 -0.8721,-0.50965 -1.9728,-0.50074 -2.688,-0.27075 -1.4305,0.45999 -2.1107,1.27724 -2.9069,2.19799 -1.5924,1.84149 -3.171,4.47783 -4.7002,7.33134 -1.5293,2.85351 -2.9521,5.88569 -3.9179,8.35364 -0.4829,1.23397 -0.8559,2.32519 -1.0873,3.27861 -0.1158,0.47671 -0.1894,0.88951 -0.2048,1.43004 -0.015,0.54053 -0.1949,1.54372 1.0833,2.53632 1.0496,0.81506 1.6853,0.61027 2.1686,0.58427 0.4833,-0.026 0.8851,-0.11228 1.3342,-0.21873 0.8983,-0.21291 1.9131,-0.5476 3.0633,-0.97645 2.3004,-0.85769 5.1101,-2.07608 7.7918,-3.42037 2.6817,-1.34428 5.1941,-2.77003 7.0428,-4.13195 0.9243,-0.68095 1.6733,-1.28151 2.3114,-2.24089 0.3191,-0.47969 0.6851,-1.12522 0.6482,-2.09998 -0.037,-0.97475 -0.7168,-2.01719 -1.3955,-2.45878 -3.0151,-1.96151 -5.2665,-3.27792 -6.9751,-7.93805 -0.1218,-0.33225 -0.2893,-0.69475 -0.5387,-1.0359 z"
       id="path4352"
       inkscape:connector-curvature="0"
       sodipodi:nodetypes="sssssssssssssssssss" />
    <path
       style="font-size:medium;font-style:normal;font-variant:normal;font-weight:normal;font-stretch:normal;text-indent:0;text-align:start;text-decoration:none;line-height:normal;letter-spacing:normal;word-spacing:normal;text-transform:none;direction:ltr;block-progression:tb;writing-mode:lr-tb;text-anchor:start;baseline-shift:baseline;color:#000000;fill:#000000;fill-opacity:1;fill-rule:nonzero;stroke:none;stroke-width:5;marker:none;visibility:visible;display:inline;overflow:visible;enable-background:accumulate;font-family:Sans;-inkscape-font-specification:Sans"
       d="m 1376.2228,290.59128 c -0.1723,-0.0119 -0.3365,0.0205 -0.5,0.0312 -0.3704,1.65195 -0.2374,3.46964 0.062,5.4375 0.6221,4.08274 2.2809,9.0498 4.5,14.34375 1.624,-0.89803 3.1126,-1.80352 4.3125,-2.6875 0.9243,-0.68095 1.6744,-1.29062 2.3125,-2.25 0.3191,-0.47969 0.6931,-1.11899 0.6562,-2.09375 -0.037,-0.97475 -0.7275,-2.02716 -1.4062,-2.46875 -3.0151,-1.96151 -5.2601,-3.27737 -6.9688,-7.9375 -0.1217,-0.33225 -0.2818,-0.6901 -0.5312,-1.03125 -0.2494,-0.34114 -0.5952,-0.68267 -1.0312,-0.9375 -0.4361,-0.25482 -0.9327,-0.37352 -1.4063,-0.40625 z"
       id="path4354"
       inkscape:connector-curvature="0" />
    <path
       inkscape:connector-curvature="0"
       id="path4356"
       d="m 1366.3626,190.41588 c -0.2588,0.0233 -0.5054,0.0887 -0.75,0.21875 -0.9783,0.52017 -1.3327,1.74044 -0.8125,2.71875 l 10.7813,20.3125 c 0.057,0.10834 0.1143,0.18824 0.1874,0.28125 -12.0126,6.45061 -17.9062,16.06701 -17.9062,24.0625 l 0,27.53125 c 0,3.25161 1.5132,6.24387 4.0312,8.71875 2.5182,2.47488 6.0393,4.51215 10.4063,6.1875 8.7341,3.3507 20.9192,5.25 35.5625,5.25 14.5755,0 26.7224,-1.14382 35.4688,-3.90625 4.373,-1.38122 7.9077,-3.14589 10.4687,-5.5625 2.561,-2.41661 4.0625,-5.57497 4.0625,-9.09375 l 0,-28.0625 c 0,-14.04011 -16.3401,-32.5502 -50,-32.375 -11.542,0.0601 -21.082,2.17743 -28.5938,5.5 -0.038,-0.13828 -0.086,-0.27405 -0.1562,-0.40625 l -10.7812,-20.3125 c -0.3903,-0.73373 -1.1924,-1.13236 -1.9688,-1.0625 z m 18.5938,96.8125 c -0.3495,0.0208 -0.6888,0.0523 -1.0313,0.125 -1.37,0.29056 -2.6285,1.15834 -3.375,2.28125 -1.4931,2.24583 -1.4245,4.88521 -0.9687,7.875 0.9112,5.97958 4.02,13.81033 7.9062,21.875 3.8862,8.06467 8.5714,16.26476 12.7812,22.46875 2.1049,3.10199 4.0712,5.69017 5.8438,7.59375 0.8863,0.95179 1.7208,1.73471 2.5938,2.34375 0.8728,0.60904 1.8176,1.23307 3.3124,1.0625 1.2889,-0.14707 2.0793,-0.7603 2.8438,-1.40625 0.7645,-0.64595 1.4897,-1.43134 2.25,-2.375 1.5206,-1.88732 3.1756,-4.39782 4.9062,-7.34375 3.4611,-5.89186 7.2211,-13.53758 10.375,-21.125 3.154,-7.58742 5.6806,-15.06124 6.625,-20.8125 0.4721,-2.87563 0.6466,-5.29863 -0.094,-7.5 -0.3701,-1.10068 -1.0592,-2.21698 -2.1875,-2.90625 -1.1283,-0.68927 -2.5043,-0.81256 -3.75,-0.59375 -13.219,2.3219 -25.739,4.56115 -44.8125,-1.125 -0.7417,-0.22112 -1.4491,-0.37543 -2.1563,-0.4375 -0.3535,-0.031 -0.713,-0.0208 -1.0624,0 z"
       style="font-size:medium;font-style:normal;font-variant:normal;font-weight:normal;font-stretch:normal;text-indent:0;text-align:start;text-decoration:none;line-height:normal;letter-spacing:normal;word-spacing:normal;text-transform:none;direction:ltr;block-progression:tb;writing-mode:lr-tb;text-anchor:start;baseline-shift:baseline;color:#000000;fill:url(#linearGradient5665);fill-opacity:1;fill-rule:nonzero;stroke:none;stroke-width:4;marker:none;visibility:visible;display:inline;overflow:visible;enable-background:accumulate;font-family:Sans;-inkscape-font-specification:Sans" />
    <g
       transform="translate(318.73223,35.88892)"
       id="g4358">
      <g
         transform="translate(0.65510873,0)"
         id="g4360">
        <path
           style="font-size:medium;font-style:normal;font-variant:normal;font-weight:normal;font-stretch:normal;text-indent:0;text-align:start;text-decoration:none;line-height:normal;letter-spacing:normal;word-spacing:normal;text-transform:none;direction:ltr;block-progression:tb;writing-mode:lr-tb;text-anchor:start;baseline-shift:baseline;color:#000000;fill:#333333;fill-opacity:1;fill-rule:nonzero;stroke:none;stroke-width:5;marker:none;visibility:visible;display:inline;overflow:visible;enable-background:accumulate;font-family:Sans;-inkscape-font-specification:Sans"
           d="m 1111.8246,263.63976 c -0.323,0.27257 -0.6226,0.63809 -0.8464,1.09086 -0.4475,0.90556 -0.3619,2.00293 -0.083,2.70038 0.5587,1.3949 1.4214,2.01647 2.3954,2.7465 1.9481,1.46005 4.6882,2.85091 7.6414,4.17738 2.9532,1.32647 6.0773,2.53428 8.6066,3.32558 1.2646,0.39565 2.3564,0.67035 3.3236,0.83469 0.4836,0.0822 0.9234,0.14819 1.4637,0.12577 0.5403,-0.0224 1.5094,0.0883 2.4104,-1.25603 0.7399,-1.10389 0.5354,-1.72526 0.4757,-2.20556 -0.06,-0.4803 -0.1737,-0.87515 -0.3112,-1.31576 -0.2751,-0.88122 -0.6797,-1.87016 -1.1878,-2.98767 -1.016,-2.23503 -2.4275,-4.95281 -3.9555,-7.53423 -1.5281,-2.58142 -3.1485,-5.00954 -4.6361,-6.75871 -0.7437,-0.87459 -1.3951,-1.57984 -2.3966,-2.14948 -0.5008,-0.28482 -1.1474,-0.58365 -2.1173,-0.47883 -0.9698,0.10483 -1.9622,0.85575 -2.3554,1.56367 -1.7464,3.14451 -2.9026,5.48225 -7.4322,7.5118 -0.3229,0.1447 -0.6728,0.33708 -0.9957,0.60964 z"
           id="path4362"
           inkscape:connector-curvature="0"
           sodipodi:nodetypes="ssssssssscsssssssss" />
        <path
           style="font-size:medium;font-style:normal;font-variant:normal;font-weight:normal;font-stretch:normal;text-indent:0;text-align:start;text-decoration:none;line-height:normal;letter-spacing:normal;word-spacing:normal;text-transform:none;direction:ltr;block-progression:tb;writing-mode:lr-tb;text-anchor:start;baseline-shift:baseline;color:#000000;fill:#4d4d4d;fill-opacity:1;fill-rule:nonzero;stroke:none;stroke-width:5;marker:none;visibility:visible;display:inline;overflow:visible;enable-background:accumulate;font-family:Sans;-inkscape-font-specification:Sans"
           d="m 1122.6341,253.97219 c -0.9698,0.10483 -1.9506,0.85458 -2.3437,1.5625 -1.7464,3.14451 -2.908,5.47045 -7.4376,7.5 -0.3228,0.1447 -0.677,0.35244 -1,0.625 -0.323,0.27257 -0.6199,0.64098 -0.8437,1.09375 -0.4475,0.90556 -0.3727,1.99005 -0.094,2.6875 0.5587,1.3949 1.4322,2.01997 2.4062,2.75 1.6946,1.27006 3.9879,2.48774 6.5,3.65625 1.6092,-4.58197 2.8121,-8.88119 3.4062,-12.5 0.4632,-2.82123 0.6305,-5.20697 -0.062,-7.375 -0.1713,-0.008 -0.335,-0.0212 -0.5313,0 z"
           id="path4364"
           inkscape:connector-curvature="0" />
      </g>
    </g>
    <path
       sodipodi:nodetypes="ccccccsccccsccsccccccccccsccccccccccc"
       inkscape:connector-curvature="0"
       id="path4366"
       d="m 1452.7376,191.9342 c -0.6414,0.0112 -1.2791,0.32547 -1.6562,0.90625 l -12.5313,19.28125 c -0.1821,0.28038 -0.2513,0.59609 -0.2813,0.90625 -2.8919,-1.44392 -6.0919,-2.71585 -9.625,-3.71875 0.3559,1.90195 0.8574,3.82667 1.1563,5.71875 0.8805,5.57289 1.5179,11.10018 1.9375,16.59375 0.4196,5.49357 0.6192,10.95131 0.625,16.375 0.01,5.42369 -0.1703,10.82422 -0.5312,16.1875 -0.3613,5.36328 -0.913,10.68768 -1.5938,16 -0.1836,1.43217 -0.4517,2.85235 -0.6562,4.28125 5.2318,-0.63089 9.9658,-1.50547 13.9062,-2.75 4.3731,-1.38122 7.9077,-3.14589 10.4688,-5.5625 2.5606,-2.41661 4.0626,-5.57497 4.0624,-9.09375 l 0,-28.0625 c 0,-8.08991 -5.4961,-17.60646 -16.5624,-24.21875 0.1696,-0.13309 0.3444,-0.27729 0.4687,-0.46875 l 12.5,-19.28125 c 0.6035,-0.92925 0.3667,-2.17779 -0.5625,-2.78125 -0.3485,-0.2263 -0.7402,-0.31921 -1.125,-0.3125 z m -18.6562,96.6875 c -0.3219,0.008 -0.626,0.039 -0.9376,0.0937 -1.4483,0.25443 -3.0372,0.55315 -4.4784,0.79527 -0.3543,2.21663 -0.4966,4.33867 -0.8966,6.54848 -0.9535,5.27082 -2.008,10.51123 -3.1874,15.75 -1.1796,5.23877 -2.4856,10.47132 -3.8438,15.6875 -1.3582,5.21618 -2.7915,10.42195 -4.2812,15.625 -0.8741,3.05207 -1.8437,6.10612 -2.75,9.15625 0.4885,-0.25921 0.9082,-0.56461 1.3124,-0.90625 0.7645,-0.64595 1.4898,-1.43134 2.25,-2.375 1.5209,-1.88732 3.1757,-4.39782 4.9063,-7.34375 3.461,-5.89186 7.221,-13.53758 10.375,-21.125 3.1539,-7.58742 5.6806,-15.06124 6.625,-20.8125 0.4721,-2.87563 0.6468,-5.29863 -0.094,-7.5 -0.3705,-1.10068 -1.0591,-2.21698 -2.1876,-2.90625 -0.846,-0.51695 -1.8471,-0.71283 -2.8124,-0.6875 z"
       style="font-size:medium;font-style:normal;font-variant:normal;font-weight:normal;font-stretch:normal;text-indent:0;text-align:start;text-decoration:none;line-height:normal;letter-spacing:normal;word-spacing:normal;text-transform:none;direction:ltr;block-progression:tb;writing-mode:lr-tb;text-anchor:start;baseline-shift:baseline;color:#000000;fill:#111111;fill-opacity:1;fill-rule:nonzero;stroke:none;stroke-width:4;marker:none;visibility:visible;display:inline;overflow:visible;enable-background:accumulate;font-family:Sans;-inkscape-font-specification:Sans" />
    <rect
       style="fill:#ffffff;stroke:none"
       rx="13.155108"
       height="26.310217"
       width="77"
       y="244.39157"
       x="1386.8474"
       id="rect4368"
       ry="13.155108" />
    <path
       sodipodi:type="arc"
       style="fill:#e6e6e6;fill-opacity:1;fill-rule:evenodd;stroke:none"
       id="path4370"
       sodipodi:cx="1094.7701"
       sodipodi:cy="323.75235"
       sodipodi:rx="20.541206"
       sodipodi:ry="2.6627488"
       d="m 1115.3113,323.75235 c 0,1.4706 -9.1966,2.66275 -20.5412,2.66275 -11.3446,0 -20.5412,-1.19215 -20.5412,-2.66275 0,-1.4706 9.1966,-2.66275 20.5412,-2.66275 11.3446,0 20.5412,1.19215 20.5412,2.66275 z"
       transform="translate(317.07362,37.88892)" />
    <path
       d="m 1405.9092,264.25458 c 3.4562,0.98283 8.1193,1.31268 12.5784,-0.17448 4.4592,-1.48716 2.3327,-2.85172 0,-1.69168 -2.3326,1.16004 -9.9946,1.13549 -13.1919,0 -3.1974,-1.1355 -2.8426,0.88335 0.6135,1.86616 z"
       id="path4390"
       inkscape:connector-curvature="0"
       style="fill:#000000;stroke:none" />
    <path
       d="m 1440.9092,264.25458 c 3.4562,0.98283 8.1193,1.31268 12.5784,-0.17448 4.4592,-1.48716 2.3327,-2.85172 0,-1.69168 -2.3326,1.16004 -9.9946,1.13549 -13.1919,0 -3.1974,-1.1355 -2.8426,0.88335 0.6135,1.86616 z"
       id="path4392"
       inkscape:connector-curvature="0"
       style="fill:#000000;stroke:none" />
    <path
       inkscape:export-ydpi="333.70966"
       inkscape:export-xdpi="333.70966"
       inkscape:export-filename="/Users/jean-marie/Pertimm/voqal.ai/robots.png"
       inkscape:connector-curvature="0"
       id="path5318"
       d="m 1411.406,302.51489 c -4.1708,0 -7.5241,3.36203 -7.5241,7.53287 0,0.13029 0,0.25873 0,0.3874 l 1.0962,0 1.6247,-2.80884 c -0.2143,-0.51475 -0.015,-1.12712 0.4842,-1.41324 0.1338,-0.0776 0.2724,-0.12744 0.4182,-0.14528 0.4374,-0.0534 0.8898,0.15579 1.1227,0.55913 l 2.7693,4.79444 2.7649,-4.79444 c 0.2328,-0.40344 0.6809,-0.61245 1.1182,-0.55913 0.1449,0.0177 0.2926,0.0677 0.4271,0.14528 0.4929,0.28467 0.6897,0.89138 0.4799,1.40443 l 1.5364,2.67238 1.1975,0 c 0.016,-0.005 0.016,0.0143 0.016,-0.24213 0,-4.17084 -3.3621,-7.53287 -7.5328,-7.53287 z m -4.0593,6.40139 -1.4307,2.48306 c -0.032,0.0562 -0.078,0.0986 -0.1227,0.14081 -0.028,0.0277 -0.059,0.0578 -0.092,0.0793 -0.02,0.0127 -0.04,0.0289 -0.062,0.0397 0,0.003 -0.015,0.002 -0.018,0.005 -0.029,0.0143 -0.06,0.0212 -0.092,0.0309 -0.02,0.007 -0.04,0.0127 -0.062,0.0177 -0.02,0.003 -0.042,0.007 -0.062,0.008 -0.022,0.003 -0.047,0.005 -0.07,0.005 l -1.2678,0 c 0.7612,3.35426 3.7478,5.84665 7.3391,5.84665 1.538,0 2.9624,-0.4559 4.1516,-1.24154 l 3.0951,0.8541 -1.0787,-2.81324 c 0.4774,-0.52159 1.1891,-1.77187 1.1931,-2.79126 l -1.3913,0 c -0.022,0 -0.04,-0.007 -0.062,-0.01 -0.02,-0.003 -0.042,-0.007 -0.062,-0.01 -0.021,-0.005 -0.042,-0.007 -0.062,-0.0127 -0.04,-0.0127 -0.078,-0.0285 -0.1146,-0.0484 -0.019,-0.01 -0.04,-0.0199 -0.057,-0.0309 -0.035,-0.0217 -0.06,-0.0504 -0.092,-0.0793 -0.046,-0.043 -0.089,-0.0873 -0.1226,-0.14527 l -1.3471,-2.32898 -3.0774,5.33156 c 0,0.008 -0.016,0.0143 -0.017,0.022 -0.02,0.032 -0.04,0.0631 -0.062,0.0924 -0.067,0.0875 -0.145,0.16666 -0.2378,0.23335 0,0.003 -0.016,0.007 -0.016,0.008 -0.027,0.0188 -0.054,0.0362 -0.085,0.0529 -0.033,0.0194 -0.067,0.0372 -0.1019,0.0529 -0.033,0.0159 -0.07,0.0275 -0.1051,0.0397 -0.2988,0.10227 -0.6374,0.0848 -0.929,-0.0836 -0.2194,-0.12663 -0.3789,-0.31854 -0.471,-0.53712 l -3.0115,-5.21267 z"
       style="font-size:40px;font-style:normal;font-variant:normal;font-weight:500;font-stretch:normal;line-height:125%;letter-spacing:0px;word-spacing:0px;opacity:0.98000004;fill:#49d8fb;fill-opacity:1;fill-rule:evenodd;stroke:none;font-family:Futura;-inkscape-font-specification:Futura Medium" />
  </g>
  <g
     id="g5741"
     inkscape:export-filename="/Users/jean-marie/Pertimm/voqal.ai/platform/webapp/app/assets/images/robot-confused@2x.png"
     inkscape:export-xdpi="105.38565"
     inkscape:export-ydpi="105.38565"
     transform="translate(-1032.8765,-47.340172)">
    <rect
       ry="0"
       rx="0"
       y="179.8674"
       x="1527.1021"
       height="190.43661"
       width="136.64095"
       id="rect4275"
       style="opacity:0;fill:#cccccc;fill-opacity:1;fill-rule:evenodd;stroke:none" />
    <path
       sodipodi:nodetypes="sssssssssssssssssss"
       inkscape:connector-curvature="0"
       id="path3252"
       d="m 1567.3849,293.57877 c -0.2494,-0.34114 -0.5931,-0.66553 -1.0292,-0.92036 -0.8721,-0.50965 -1.9728,-0.50074 -2.688,-0.27075 -1.4305,0.45999 -2.1107,1.27724 -2.9069,2.19799 -1.5924,1.84149 -3.171,4.47783 -4.7002,7.33134 -1.5293,2.85351 -2.9521,5.88569 -3.9179,8.35364 -0.4829,1.23397 -0.8559,2.32519 -1.0873,3.27861 -0.1158,0.47671 -0.1894,0.88951 -0.2048,1.43004 -0.015,0.54053 -0.1949,1.54372 1.0833,2.53632 1.0496,0.81506 1.6853,0.61027 2.1686,0.58427 0.4833,-0.026 0.8851,-0.11228 1.3342,-0.21873 0.8983,-0.21291 1.9131,-0.5476 3.0633,-0.97645 2.3004,-0.85769 5.1101,-2.07608 7.7918,-3.42037 2.6817,-1.34428 5.1941,-2.77003 7.0428,-4.13195 0.9243,-0.68095 1.6733,-1.28151 2.3114,-2.24089 0.3191,-0.47969 0.6851,-1.12522 0.6482,-2.09998 -0.037,-0.97475 -0.7168,-2.01719 -1.3955,-2.45878 -3.0151,-1.96151 -5.2665,-3.27792 -6.9751,-7.93805 -0.1218,-0.33225 -0.2893,-0.69475 -0.5387,-1.0359 z"
       style="font-size:medium;font-style:normal;font-variant:normal;font-weight:normal;font-stretch:normal;text-indent:0;text-align:start;text-decoration:none;line-height:normal;letter-spacing:normal;word-spacing:normal;text-transform:none;direction:ltr;block-progression:tb;writing-mode:lr-tb;text-anchor:start;baseline-shift:baseline;color:#000000;fill:url(#linearGradient5653);fill-opacity:1;fill-rule:nonzero;stroke:none;stroke-width:5;marker:none;visibility:visible;display:inline;overflow:visible;enable-background:accumulate;font-family:Sans;-inkscape-font-specification:Sans" />
    <path
       sodipodi:nodetypes="ccccscccccccc"
       inkscape:connector-curvature="0"
       id="path3270"
       d="m 1564.9936,292.25556 c -0.1723,-0.0119 -0.3365,0.0205 -0.5,0.0312 -0.3704,1.65195 -0.2374,3.46964 0.062,5.4375 0.6221,4.08274 2.2334,9.02603 4.4525,14.31998 1.624,-0.89803 3.1601,-1.77975 4.36,-2.66373 0.9243,-0.68095 1.6744,-1.29062 2.3125,-2.25 0.3191,-0.47969 0.6931,-1.11899 0.6562,-2.09375 -0.037,-0.97475 -0.7275,-2.02716 -1.4062,-2.46875 -3.0151,-1.96151 -5.2601,-3.27737 -6.9688,-7.9375 -0.1217,-0.33225 -0.2818,-0.6901 -0.5312,-1.03125 -0.2494,-0.34114 -0.5952,-0.68267 -1.0312,-0.9375 -0.4361,-0.25482 -0.9327,-0.37352 -1.4063,-0.40625 z"
       style="font-size:medium;font-style:normal;font-variant:normal;font-weight:normal;font-stretch:normal;text-indent:0;text-align:start;text-decoration:none;line-height:normal;letter-spacing:normal;word-spacing:normal;text-transform:none;direction:ltr;block-progression:tb;writing-mode:lr-tb;text-anchor:start;baseline-shift:baseline;color:#000000;fill:#000000;fill-opacity:1;fill-rule:nonzero;stroke:none;stroke-width:5;marker:none;visibility:visible;display:inline;overflow:visible;enable-background:accumulate;font-family:Sans;-inkscape-font-specification:Sans" />
    <path
       id="path3242"
       d="m 1554.5427,205.54517 c -0.5109,0.0122 -1.0239,0.224 -1.4062,0.625 -0.7645,0.80199 -0.7395,2.04799 0.062,2.8125 l 15.8437,15.09375 c -14.9161,5.7678 -22.25,15.77104 -22.25,23.90625 l 0,21.5 c 0,2.97174 1.5132,5.70689 4.0313,7.96875 2.518,2.26187 6.0392,4.1251 10.4063,5.65625 8.7339,3.0623 20.9193,4.78125 35.5624,4.78125 14.5756,0 26.7225,-1.03784 35.4688,-3.5625 4.3731,-1.26234 7.9077,-2.88514 10.4688,-5.09375 2.5608,-2.20861 4.0624,-5.09658 4.0624,-8.3125 l 0,-21.96875 c 0,-12.83165 -16.3399,-29.75387 -50,-29.59375 -9.184,0.0437 -17.0599,1.27496 -23.6874,3.3125 -0.1036,-0.26226 -0.282,-0.47951 -0.5,-0.6875 l -16.6563,-15.875 c -0.401,-0.38225 -0.8951,-0.57473 -1.4063,-0.5625 z m 19.3438,81.875 c -0.3494,0.0208 -0.6887,0.0523 -1.0312,0.125 -1.37,0.29056 -2.6285,1.15834 -3.375,2.28125 -1.4931,2.24583 -1.4245,4.88521 -0.9688,7.875 0.9112,5.97958 4.0202,13.81033 7.9062,21.875 3.8862,8.06467 8.5715,16.26476 12.7813,22.46875 2.1048,3.10199 4.0712,5.69017 5.8437,7.59375 0.8863,0.95179 1.7209,1.73471 2.5938,2.34375 0.8728,0.60904 1.8176,1.23307 3.3125,1.0625 1.2889,-0.14707 2.0792,-0.7603 2.8437,-1.40625 0.7646,-0.64595 1.4898,-1.43134 2.25,-2.375 1.5207,-1.88732 3.1757,-4.39782 4.9063,-7.34375 3.461,-5.89186 7.221,-13.53758 10.375,-21.125 3.1539,-7.58742 5.6807,-15.06124 6.625,-20.8125 0.4721,-2.87563 0.6467,-5.29863 -0.094,-7.5 -0.3702,-1.10068 -1.0593,-2.21698 -2.1876,-2.90625 -1.1283,-0.68927 -2.5043,-0.81256 -3.75,-0.59375 -13.219,2.3219 -25.739,4.56115 -44.8124,-1.125 -0.7419,-0.22112 -1.4492,-0.37543 -2.1563,-0.4375 -0.3536,-0.031 -0.7131,-0.0208 -1.0625,0 z"
       style="font-size:medium;font-style:normal;font-variant:normal;font-weight:normal;font-stretch:normal;text-indent:0;text-align:start;text-decoration:none;line-height:normal;letter-spacing:normal;word-spacing:normal;text-transform:none;direction:ltr;block-progression:tb;writing-mode:lr-tb;text-anchor:start;baseline-shift:baseline;color:#000000;fill:url(#linearGradient5643);fill-opacity:1;fill-rule:nonzero;stroke:none;stroke-width:4;marker:none;visibility:visible;display:inline;overflow:visible;enable-background:accumulate;font-family:Sans;-inkscape-font-specification:Sans"
       inkscape:connector-curvature="0" />
    <rect
       id="rect3246"
       transform="matrix(0.36910114,-0.92938923,0.92938923,0.36910114,0,0)"
       x="387.83698"
       y="1590.8995"
       width="27"
       height="4"
       rx="2"
       style="fill:#333333;stroke:none" />
    <g
       transform="translate(507.13649,37.888917)"
       id="g4177">
      <g
         id="g3313"
         transform="translate(0.65510873,0)">
        <path
           sodipodi:nodetypes="ssssssssscsssssssss"
           inkscape:connector-curvature="0"
           id="path3254"
           d="m 1111.8246,263.63976 c -0.323,0.27257 -0.6226,0.63809 -0.8464,1.09086 -0.4475,0.90556 -0.3619,2.00293 -0.083,2.70038 0.5587,1.3949 1.4214,2.01647 2.3954,2.7465 1.9481,1.46005 4.6882,2.85091 7.6414,4.17738 2.9532,1.32647 6.0773,2.53428 8.6066,3.32558 1.2646,0.39565 2.3564,0.67035 3.3236,0.83469 0.4836,0.0822 0.9234,0.14819 1.4637,0.12577 0.5403,-0.0224 1.5094,0.0883 2.4104,-1.25603 0.7399,-1.10389 0.5354,-1.72526 0.4757,-2.20556 -0.06,-0.4803 -0.1737,-0.87515 -0.3112,-1.31576 -0.2751,-0.88122 -0.6797,-1.87016 -1.1878,-2.98767 -1.016,-2.23503 -2.4275,-4.95281 -3.9555,-7.53423 -1.5281,-2.58142 -3.1485,-5.00954 -4.6361,-6.75871 -0.7437,-0.87459 -1.3951,-1.57984 -2.3966,-2.14948 -0.5008,-0.28482 -1.1474,-0.58365 -2.1173,-0.47883 -0.9698,0.10483 -1.9622,0.85575 -2.3554,1.56367 -1.7464,3.14451 -2.9026,5.48225 -7.4322,7.5118 -0.3229,0.1447 -0.6728,0.33708 -0.9957,0.60964 z"
           style="font-size:medium;font-style:normal;font-variant:normal;font-weight:normal;font-stretch:normal;text-indent:0;text-align:start;text-decoration:none;line-height:normal;letter-spacing:normal;word-spacing:normal;text-transform:none;direction:ltr;block-progression:tb;writing-mode:lr-tb;text-anchor:start;baseline-shift:baseline;color:#000000;fill:#333333;fill-opacity:1;fill-rule:nonzero;stroke:none;stroke-width:5;marker:none;visibility:visible;display:inline;overflow:visible;enable-background:accumulate;font-family:Sans;-inkscape-font-specification:Sans" />
        <path
           inkscape:connector-curvature="0"
           id="path3288"
           d="m 1122.6341,253.97219 c -0.9698,0.10483 -1.9506,0.85458 -2.3437,1.5625 -1.7464,3.14451 -2.908,5.47045 -7.4376,7.5 -0.3228,0.1447 -0.677,0.35244 -1,0.625 -0.323,0.27257 -0.6199,0.64098 -0.8437,1.09375 -0.4475,0.90556 -0.3727,1.99005 -0.094,2.6875 0.5587,1.3949 1.4322,2.01997 2.4062,2.75 1.6946,1.27006 3.9879,2.48774 6.5,3.65625 1.6092,-4.58197 2.8121,-8.88119 3.4062,-12.5 0.4632,-2.82123 0.6305,-5.20697 -0.062,-7.375 -0.1713,-0.008 -0.335,-0.0212 -0.5313,0 z"
           style="font-size:medium;font-style:normal;font-variant:normal;font-weight:normal;font-stretch:normal;text-indent:0;text-align:start;text-decoration:none;line-height:normal;letter-spacing:normal;word-spacing:normal;text-transform:none;direction:ltr;block-progression:tb;writing-mode:lr-tb;text-anchor:start;baseline-shift:baseline;color:#000000;fill:#4d4d4d;fill-opacity:1;fill-rule:nonzero;stroke:none;stroke-width:5;marker:none;visibility:visible;display:inline;overflow:visible;enable-background:accumulate;font-family:Sans;-inkscape-font-specification:Sans" />
      </g>
    </g>
    <g
       style="fill:#111111;fill-opacity:1"
       transform="translate(644.54397,36.275048)"
       id="g3309">
      <path
         inkscape:connector-curvature="0"
         style="font-size:medium;font-style:normal;font-variant:normal;font-weight:normal;font-stretch:normal;text-indent:0;text-align:start;text-decoration:none;line-height:normal;letter-spacing:normal;word-spacing:normal;text-transform:none;direction:ltr;block-progression:tb;writing-mode:lr-tb;text-anchor:start;baseline-shift:baseline;color:#000000;fill:#111111;fill-opacity:1;fill-rule:nonzero;stroke:none;stroke-width:4;marker:none;visibility:visible;display:inline;overflow:visible;enable-background:accumulate;font-family:Sans;-inkscape-font-specification:Sans"
         d="m 970.875,250.84375 c 6.42261,-0.56926 12.16465,-1.43963 16.8125,-2.78125 4.3731,-1.26234 7.90785,-2.88514 10.46875,-5.09375 2.56095,-2.20861 4.06255,-5.09658 4.06255,-8.3125 l 0,-22 c 0,-10.69147 -11.52669,-24.09504 -34.7813,-28.21875 0.68775,4.22399 1.33964,8.40681 1.84375,12.4375 0.60546,4.84108 1.07757,9.55145 1.4375,14.125 0.35993,4.57355 0.58321,9.02539 0.71875,13.34375 0.13554,4.31836 0.1927,8.51823 0.125,12.59375 -0.0677,4.07552 -0.2502,8.02998 -0.5,11.875 -0.0454,0.6983 -0.13654,1.34031 -0.1875,2.03125 z"
         id="path3307" />
      <path
         sodipodi:nodetypes="cccscccccscsssscc"
         inkscape:connector-curvature="0"
         style="font-size:medium;font-style:normal;font-variant:normal;font-weight:normal;font-stretch:normal;text-indent:0;text-align:start;text-decoration:none;line-height:normal;letter-spacing:normal;word-spacing:normal;text-transform:none;direction:ltr;block-progression:tb;writing-mode:lr-tb;text-anchor:start;baseline-shift:baseline;color:#000000;fill:#111111;fill-opacity:1;fill-rule:nonzero;stroke:none;stroke-width:4;marker:none;visibility:visible;display:inline;overflow:visible;enable-background:accumulate;font-family:Sans;-inkscape-font-specification:Sans"
         d="m 956.1875,316.75 c 0.0724,-0.005 0.11243,0.0398 0.1875,0.0312 1.2889,-0.14707 2.07925,-0.7603 2.84375,-1.40625 0.7646,-0.64595 1.4897,-1.43134 2.25,-2.375 1.5206,-1.88732 3.17565,-4.39782 4.90625,-7.34375 3.461,-5.89186 7.221,-13.53758 10.375,-21.125 3.1539,-7.58742 5.6807,-15.06124 6.625,-20.8125 0.4721,-2.87563 0.64665,-5.29863 -0.0937,-7.5 -0.3701,-1.10068 -1.0593,-2.21698 -2.1875,-2.90625 -1.1283,-0.68927 -2.5043,-0.81256 -3.75,-0.59375 -2.24206,0.39382 -4.48151,0.7699 -6.71875,1.12069 -0.17941,2.0721 -0.33529,4.15437 -0.5625,6.16056 -0.41076,3.62687 -0.88694,7.17268 -1.4375,10.59375 -1.10113,6.84213 -2.46651,13.28201 -4,19.375 -1.53349,6.09299 -3.23456,11.83864 -5.03125,17.28125 -1.10306,3.34142 -2.25544,6.37368 -3.40625,9.5 z"
         id="path3303" />
    </g>
    <path
       sodipodi:nodetypes="csccc"
       inkscape:connector-curvature="0"
       id="path3244"
       d="m 1598.9996,263.9254 c 20.7997,-1.22975 37.5211,-1.92052 36.3,8.29483 -1.0787,9.02418 -13.0079,12.33671 -35.7811,12.57718 -22.649,-0.15571 -38.3868,-2.83572 -41.2189,-12.95758 -1.1925,-11.26599 20.1832,-9.36821 40.7,-7.91443 z"
       style="fill:#ffffff;stroke:none" />
    <path
       id="path3258"
       d="m 1615.7206,270.71101 c -3.8659,0 -7,1.29144 -7,3.78018 0,2.48875 3.1341,3.87614 7,3.87614 3.866,0 7,-1.38739 7,-3.87614 0,-2.48874 -3.134,-3.78018 -7,-3.78018 z m -0.1875,2.11076 c 1.5464,0 2.7813,0.80825 2.7813,1.80375 0,0.99549 -1.2349,1.80374 -2.7813,1.80374 -1.5464,0 -2.8125,-0.80825 -2.8125,-1.80374 0,-0.9955 1.2661,-1.80375 2.8125,-1.80375 z"
       style="fill:#000000;stroke:none"
       inkscape:connector-curvature="0" />
    <path
       id="path3256"
       d="m 1579.7206,270.59587 c -3.8659,0 -7,1.40658 -7,3.89532 0,2.48875 3.1341,3.97208 7,3.97208 3.866,0 7,-1.48333 7,-3.97208 0,-2.48874 -3.134,-3.89532 -7,-3.89532 z m -0.1875,2.2259 c 1.5464,0 2.7813,0.80825 2.7813,1.80375 0,0.99549 -1.2349,1.80374 -2.7813,1.80374 -1.5464,0 -2.8125,-0.80825 -2.8125,-1.80374 0,-0.9955 1.2661,-1.80375 2.8125,-1.80375 z"
       style="fill:#000000;stroke:none"
       inkscape:connector-curvature="0" />
    <path
       transform="translate(505.61492,37.888917)"
       d="m 1115.3113,323.75235 c 0,1.4706 -9.1966,2.66275 -20.5412,2.66275 -11.3446,0 -20.5412,-1.19215 -20.5412,-2.66275 0,-1.4706 9.1966,-2.66275 20.5412,-2.66275 11.3446,0 20.5412,1.19215 20.5412,2.66275 z"
       sodipodi:ry="2.6627488"
       sodipodi:rx="20.541206"
       sodipodi:cy="323.75235"
       sodipodi:cx="1094.7701"
       id="path3317"
       style="fill:#e6e6e6;fill-opacity:1;fill-rule:evenodd;stroke:none"
       sodipodi:type="arc" />
    <path
       style="font-size:40px;font-style:normal;font-variant:normal;font-weight:500;font-stretch:normal;line-height:125%;letter-spacing:0px;word-spacing:0px;opacity:0.98000004;fill:#49d8fb;fill-opacity:1;fill-rule:evenodd;stroke:none;font-family:Futura;-inkscape-font-specification:Futura Medium"
       d="m 1599.3138,302.51489 c -4.1708,0 -7.5241,3.36203 -7.5241,7.53287 0,0.13029 0,0.25873 0,0.3874 l 1.0962,0 1.6247,-2.80884 c -0.2143,-0.51475 -0.015,-1.12712 0.4842,-1.41324 0.1338,-0.0776 0.2724,-0.12744 0.4182,-0.14528 0.4374,-0.0534 0.8898,0.15579 1.1227,0.55913 l 2.7693,4.79444 2.7649,-4.79444 c 0.2328,-0.40344 0.6809,-0.61245 1.1182,-0.55913 0.1449,0.0177 0.2926,0.0677 0.4271,0.14528 0.4929,0.28467 0.6897,0.89138 0.4799,1.40443 l 1.5364,2.67238 1.1975,0 c 0.016,-0.005 0.016,0.0143 0.016,-0.24213 0,-4.17084 -3.3621,-7.53287 -7.5328,-7.53287 z m -4.0593,6.40139 -1.4307,2.48306 c -0.032,0.0562 -0.078,0.0986 -0.1227,0.14081 -0.028,0.0277 -0.059,0.0578 -0.092,0.0793 -0.02,0.0127 -0.04,0.0289 -0.062,0.0397 0,0.003 -0.015,0.002 -0.018,0.005 -0.029,0.0143 -0.06,0.0212 -0.092,0.0309 -0.02,0.007 -0.04,0.0127 -0.062,0.0177 -0.02,0.003 -0.042,0.007 -0.062,0.008 -0.022,0.003 -0.047,0.005 -0.07,0.005 l -1.2678,0 c 0.7612,3.35426 3.7478,5.84665 7.3391,5.84665 1.538,0 2.9624,-0.4559 4.1516,-1.24154 l 3.0951,0.8541 -1.0787,-2.81324 c 0.4774,-0.52159 1.1891,-1.77187 1.1931,-2.79126 l -1.3913,0 c -0.022,0 -0.04,-0.007 -0.062,-0.01 -0.02,-0.003 -0.042,-0.007 -0.062,-0.01 -0.021,-0.005 -0.042,-0.007 -0.062,-0.0127 -0.04,-0.0127 -0.078,-0.0285 -0.1146,-0.0484 -0.019,-0.01 -0.04,-0.0199 -0.057,-0.0309 -0.035,-0.0217 -0.06,-0.0504 -0.092,-0.0793 -0.046,-0.043 -0.089,-0.0873 -0.1226,-0.14527 l -1.3471,-2.32898 -3.0774,5.33156 c 0,0.008 -0.016,0.0143 -0.017,0.022 -0.02,0.032 -0.04,0.0631 -0.062,0.0924 -0.067,0.0875 -0.145,0.16666 -0.2378,0.23335 0,0.003 -0.016,0.007 -0.016,0.008 -0.027,0.0188 -0.054,0.0362 -0.085,0.0529 -0.033,0.0194 -0.067,0.0372 -0.1019,0.0529 -0.033,0.0159 -0.07,0.0275 -0.1051,0.0397 -0.2988,0.10227 -0.6374,0.0848 -0.929,-0.0836 -0.2194,-0.12663 -0.3789,-0.31854 -0.471,-0.53712 l -3.0115,-5.21267 z"
       id="path5320"
       inkscape:connector-curvature="0"
       inkscape:export-filename="/Users/jean-marie/Pertimm/voqal.ai/platform/webapp/app/assets/images/robot-confused@2x.png"
       inkscape:export-xdpi="105.39"
       inkscape:export-ydpi="105.39" />
  </g>
  <g
     id="g5723"
     inkscape:export-filename="/Users/jean-marie/Pertimm/voqal.ai/platform/webapp/app/assets/images/robot-idle@2x.png"
     inkscape:export-xdpi="105.39"
     inkscape:export-ydpi="105.39"
     transform="translate(-1032.8765,-47.340172)">
    <rect
       style="opacity:0;fill:#cccccc;fill-opacity:1;fill-rule:evenodd;stroke:none"
       id="rect4277"
       width="136.64095"
       height="190.43661"
       x="1714.5839"
       y="179.8674"
       rx="0"
       ry="0" />
    <path
       style="font-size:medium;font-style:normal;font-variant:normal;font-weight:normal;font-stretch:normal;text-indent:0;text-align:start;text-decoration:none;line-height:normal;letter-spacing:normal;word-spacing:normal;text-transform:none;direction:ltr;block-progression:tb;writing-mode:lr-tb;text-anchor:start;baseline-shift:baseline;color:#000000;fill:url(#linearGradient5721);fill-opacity:1;fill-rule:nonzero;stroke:none;stroke-width:5;marker:none;visibility:visible;display:inline;overflow:visible;enable-background:accumulate;font-family:Sans;-inkscape-font-specification:Sans"
       d="m 1753.5639,291.95916 c -0.2494,-0.34114 -0.5931,-0.66553 -1.0292,-0.92036 -0.8721,-0.50965 -1.9728,-0.50074 -2.688,-0.27075 -1.4305,0.45999 -2.1107,1.27724 -2.9069,2.19799 -1.5924,1.84149 -3.171,4.47783 -4.7002,7.33134 -1.5293,2.85351 -2.9521,5.88569 -3.9179,8.35364 -0.4829,1.23397 -0.8559,2.32519 -1.0873,3.27861 -0.1158,0.47671 -0.1894,0.88951 -0.2048,1.43004 -0.015,0.54053 -0.1949,1.54372 1.0833,2.53632 1.0496,0.81506 1.6853,0.61027 2.1686,0.58427 0.4833,-0.026 0.8851,-0.11228 1.3342,-0.21873 0.8983,-0.21291 1.9131,-0.5476 3.0633,-0.97645 2.3004,-0.85769 5.1101,-2.07608 7.7918,-3.42037 2.6817,-1.34428 5.1941,-2.77003 7.0428,-4.13195 0.9243,-0.68095 1.6733,-1.28151 2.3114,-2.24089 0.3191,-0.47969 0.6851,-1.12522 0.6482,-2.09998 -0.037,-0.97475 -0.7168,-2.01719 -1.3955,-2.45878 -3.0151,-1.96151 -5.2665,-3.27792 -6.9751,-7.93805 -0.1218,-0.33225 -0.2893,-0.69475 -0.5387,-1.0359 z"
       id="path4196"
       inkscape:connector-curvature="0"
       sodipodi:nodetypes="sssssssssssssssssss" />
    <path
       sodipodi:nodetypes="ccccscccccccc"
       style="font-size:medium;font-style:normal;font-variant:normal;font-weight:normal;font-stretch:normal;text-indent:0;text-align:start;text-decoration:none;line-height:normal;letter-spacing:normal;word-spacing:normal;text-transform:none;direction:ltr;block-progression:tb;writing-mode:lr-tb;text-anchor:start;baseline-shift:baseline;color:#000000;fill:#000000;fill-opacity:1;fill-rule:nonzero;stroke:none;stroke-width:5;marker:none;visibility:visible;display:inline;overflow:visible;enable-background:accumulate;font-family:Sans;-inkscape-font-specification:Sans"
       d="m 1751.2201,290.60029 c -0.1723,-0.0119 -0.3365,0.0205 -0.5,0.0312 -0.3704,1.65195 -0.2374,3.46964 0.062,5.4375 0.6221,4.08274 2.2452,9.03791 4.4643,14.33186 1.624,-0.89803 3.1483,-1.79163 4.3482,-2.67561 0.9243,-0.68095 1.6744,-1.29062 2.3125,-2.25 0.3191,-0.47969 0.6931,-1.11899 0.6562,-2.09375 -0.037,-0.97475 -0.7275,-2.02716 -1.4062,-2.46875 -3.0151,-1.96151 -5.2601,-3.27737 -6.9688,-7.9375 -0.1217,-0.33225 -0.2818,-0.6901 -0.5312,-1.03125 -0.2494,-0.34114 -0.5952,-0.68267 -1.0312,-0.9375 -0.4361,-0.25482 -0.9327,-0.37352 -1.4063,-0.40625 z"
       id="path4198"
       inkscape:connector-curvature="0" />
    <path
       inkscape:connector-curvature="0"
       id="path4114"
       d="m 1741.3264,190.41588 c -0.2588,0.0233 -0.5054,0.0887 -0.75,0.21875 -0.9783,0.52017 -1.3327,1.74044 -0.8125,2.71875 l 10.7813,20.3125 c 0.057,0.10834 0.1143,0.18824 0.1874,0.28125 -12.0126,6.45061 -17.9062,16.06701 -17.9062,24.0625 l 0,27.53125 c 0,3.25161 1.5132,6.24387 4.0312,8.71875 2.5182,2.47488 6.0393,4.51215 10.4063,6.1875 8.7341,3.3507 20.9192,5.25 35.5625,5.25 14.5755,0 26.7224,-1.14382 35.4688,-3.90625 4.373,-1.38122 7.9077,-3.14589 10.4687,-5.5625 2.561,-2.41661 4.0625,-5.57497 4.0625,-9.09375 l 0,-28.0625 c 0,-14.04011 -16.3401,-32.5502 -50,-32.375 -11.542,0.0601 -21.082,2.17743 -28.5938,5.5 -0.038,-0.13828 -0.086,-0.27405 -0.1562,-0.40625 l -10.7812,-20.3125 c -0.3903,-0.73373 -1.1924,-1.13236 -1.9688,-1.0625 z m 18.5938,96.8125 c -0.3495,0.0208 -0.6888,0.0523 -1.0313,0.125 -1.37,0.29056 -2.6285,1.15834 -3.375,2.28125 -1.4931,2.24583 -1.4245,4.88521 -0.9687,7.875 0.9112,5.97958 4.02,13.81033 7.9062,21.875 3.8862,8.06467 8.5714,16.26476 12.7812,22.46875 2.1049,3.10199 4.0712,5.69017 5.8438,7.59375 0.8863,0.95179 1.7208,1.73471 2.5938,2.34375 0.8728,0.60904 1.8176,1.23307 3.3124,1.0625 1.2889,-0.14707 2.0793,-0.7603 2.8438,-1.40625 0.7645,-0.64595 1.4897,-1.43134 2.25,-2.375 1.5206,-1.88732 3.1756,-4.39782 4.9062,-7.34375 3.4611,-5.89186 7.2211,-13.53758 10.375,-21.125 3.154,-7.58742 5.6806,-15.06124 6.625,-20.8125 0.4721,-2.87563 0.6466,-5.29863 -0.094,-7.5 -0.3701,-1.10068 -1.0592,-2.21698 -2.1875,-2.90625 -1.1283,-0.68927 -2.5043,-0.81256 -3.75,-0.59375 -13.219,2.3219 -25.739,4.56115 -44.8125,-1.125 -0.7417,-0.22112 -1.4491,-0.37543 -2.1563,-0.4375 -0.3535,-0.031 -0.713,-0.0208 -1.0624,0 z"
       style="font-size:medium;font-style:normal;font-variant:normal;font-weight:normal;font-stretch:normal;text-indent:0;text-align:start;text-decoration:none;line-height:normal;letter-spacing:normal;word-spacing:normal;text-transform:none;direction:ltr;block-progression:tb;writing-mode:lr-tb;text-anchor:start;baseline-shift:baseline;color:#000000;fill:url(#linearGradient5711);fill-opacity:1;fill-rule:nonzero;stroke:none;stroke-width:4;marker:none;visibility:visible;display:inline;overflow:visible;enable-background:accumulate;font-family:Sans;-inkscape-font-specification:Sans" />
    <g
       transform="translate(693.69594,35.888917)"
       id="g4186">
      <g
         transform="translate(0.65510873,0)"
         id="g4188">
        <path
           style="font-size:medium;font-style:normal;font-variant:normal;font-weight:normal;font-stretch:normal;text-indent:0;text-align:start;text-decoration:none;line-height:normal;letter-spacing:normal;word-spacing:normal;text-transform:none;direction:ltr;block-progression:tb;writing-mode:lr-tb;text-anchor:start;baseline-shift:baseline;color:#000000;fill:#333333;fill-opacity:1;fill-rule:nonzero;stroke:none;stroke-width:5;marker:none;visibility:visible;display:inline;overflow:visible;enable-background:accumulate;font-family:Sans;-inkscape-font-specification:Sans"
           d="m 1111.8246,263.63976 c -0.323,0.27257 -0.6226,0.63809 -0.8464,1.09086 -0.4475,0.90556 -0.3619,2.00293 -0.083,2.70038 0.5587,1.3949 1.4214,2.01647 2.3954,2.7465 1.9481,1.46005 4.6882,2.85091 7.6414,4.17738 2.9532,1.32647 6.0773,2.53428 8.6066,3.32558 1.2646,0.39565 2.3564,0.67035 3.3236,0.83469 0.4836,0.0822 0.9234,0.14819 1.4637,0.12577 0.5403,-0.0224 1.5094,0.0883 2.4104,-1.25603 0.7399,-1.10389 0.5354,-1.72526 0.4757,-2.20556 -0.06,-0.4803 -0.1737,-0.87515 -0.3112,-1.31576 -0.2751,-0.88122 -0.6797,-1.87016 -1.1878,-2.98767 -1.016,-2.23503 -2.4275,-4.95281 -3.9555,-7.53423 -1.5281,-2.58142 -3.1485,-5.00954 -4.6361,-6.75871 -0.7437,-0.87459 -1.3951,-1.57984 -2.3966,-2.14948 -0.5008,-0.28482 -1.1474,-0.58365 -2.1173,-0.47883 -0.9698,0.10483 -1.9622,0.85575 -2.3554,1.56367 -1.7464,3.14451 -2.9026,5.48225 -7.4322,7.5118 -0.3229,0.1447 -0.6728,0.33708 -0.9957,0.60964 z"
           id="path4190"
           inkscape:connector-curvature="0"
           sodipodi:nodetypes="ssssssssscsssssssss" />
        <path
           style="font-size:medium;font-style:normal;font-variant:normal;font-weight:normal;font-stretch:normal;text-indent:0;text-align:start;text-decoration:none;line-height:normal;letter-spacing:normal;word-spacing:normal;text-transform:none;direction:ltr;block-progression:tb;writing-mode:lr-tb;text-anchor:start;baseline-shift:baseline;color:#000000;fill:#4d4d4d;fill-opacity:1;fill-rule:nonzero;stroke:none;stroke-width:5;marker:none;visibility:visible;display:inline;overflow:visible;enable-background:accumulate;font-family:Sans;-inkscape-font-specification:Sans"
           d="m 1122.6341,253.97219 c -0.9698,0.10483 -1.9506,0.85458 -2.3437,1.5625 -1.7464,3.14451 -2.908,5.47045 -7.4376,7.5 -0.3228,0.1447 -0.677,0.35244 -1,0.625 -0.323,0.27257 -0.6199,0.64098 -0.8437,1.09375 -0.4475,0.90556 -0.3727,1.99005 -0.094,2.6875 0.5587,1.3949 1.4322,2.01997 2.4062,2.75 1.6946,1.27006 3.9879,2.48774 6.5,3.65625 1.6092,-4.58197 2.8121,-8.88119 3.4062,-12.5 0.4632,-2.82123 0.6305,-5.20697 -0.062,-7.375 -0.1713,-0.008 -0.335,-0.0212 -0.5313,0 z"
           id="path4192"
           inkscape:connector-curvature="0" />
      </g>
    </g>
    <path
       sodipodi:nodetypes="ccccccsccccsccsccccccccccsccccccccccc"
       inkscape:connector-curvature="0"
       id="path4171"
       d="m 1827.6252,192.00579 c -0.6414,0.0112 -1.2791,0.32547 -1.6562,0.90625 l -12.5313,19.28125 c -0.1821,0.28038 -0.2513,0.59609 -0.2813,0.90625 -2.8919,-1.44392 -6.0919,-2.71585 -9.625,-3.71875 0.3559,1.90195 0.8574,3.82667 1.1563,5.71875 0.8805,5.57289 1.5179,11.10018 1.9375,16.59375 0.4196,5.49357 0.6192,10.95131 0.625,16.375 0.01,5.42369 -0.1703,10.82422 -0.5312,16.1875 -0.3613,5.36328 -0.913,10.68768 -1.5938,16 -0.1836,1.43217 -0.4517,2.85235 -0.6562,4.28125 5.2318,-0.63089 9.9658,-1.50547 13.9062,-2.75 4.3731,-1.38122 7.9077,-3.14589 10.4688,-5.5625 2.5606,-2.41661 4.0626,-5.57497 4.0624,-9.09375 l 0,-28.0625 c 0,-8.08991 -5.4961,-17.60646 -16.5624,-24.21875 0.1696,-0.13309 0.3444,-0.27729 0.4687,-0.46875 l 12.5,-19.28125 c 0.6035,-0.92925 0.3667,-2.17779 -0.5625,-2.78125 -0.3485,-0.2263 -0.7402,-0.31921 -1.125,-0.3125 z m -18.6562,96.6875 c -0.3219,0.008 -0.626,0.039 -0.9376,0.0937 -1.4483,0.25443 -2.9025,0.48348 -4.3437,0.7256 -0.3543,2.21663 -0.6313,4.40834 -1.0313,6.61815 -0.9535,5.27082 -2.008,10.51123 -3.1874,15.75 -1.1796,5.23877 -2.4856,10.47132 -3.8438,15.6875 -1.3582,5.21618 -2.7915,10.42195 -4.2812,15.625 -0.8741,3.05207 -1.8437,6.10612 -2.75,9.15625 0.4885,-0.25921 0.9082,-0.56461 1.3124,-0.90625 0.7645,-0.64595 1.4898,-1.43134 2.25,-2.375 1.5209,-1.88732 3.1757,-4.39782 4.9063,-7.34375 3.461,-5.89186 7.221,-13.53758 10.375,-21.125 3.1539,-7.58742 5.6806,-15.06124 6.625,-20.8125 0.4721,-2.87563 0.6468,-5.29863 -0.094,-7.5 -0.3705,-1.10068 -1.0591,-2.21698 -2.1876,-2.90625 -0.846,-0.51695 -1.8471,-0.71283 -2.8124,-0.6875 z"
       style="font-size:medium;font-style:normal;font-variant:normal;font-weight:normal;font-stretch:normal;text-indent:0;text-align:start;text-decoration:none;line-height:normal;letter-spacing:normal;word-spacing:normal;text-transform:none;direction:ltr;block-progression:tb;writing-mode:lr-tb;text-anchor:start;baseline-shift:baseline;color:#000000;fill:#111111;fill-opacity:1;fill-rule:nonzero;stroke:none;stroke-width:4;marker:none;visibility:visible;display:inline;overflow:visible;enable-background:accumulate;font-family:Sans;-inkscape-font-specification:Sans" />
    <rect
       style="fill:#ffffff;stroke:none"
       rx="14.5"
       height="29"
       width="77"
       y="239.7018"
       x="1743.8112"
       id="rect4116" />
    <g
       transform="translate(1754.8113,247.7018)"
       id="g4118"
       style="fill:#000000;stroke:none">
      <path
         id="path4120"
         transform="translate(-117,-121)"
         d="m 124,121.15625 c -3.86599,0 -7,2.29069 -7,6.34375 0,4.05306 3.13401,6.46875 7,6.46875 3.86599,0 7,-2.41569 7,-6.46875 0,-4.05306 -3.13401,-6.34375 -7,-6.34375 z m -0.1875,3.625 c 1.5464,0 2.78125,1.31628 2.78125,2.9375 0,1.62122 -1.23485,2.9375 -2.78125,2.9375 -1.5464,0 -2.8125,-1.31628 -2.8125,-2.9375 0,-1.62122 1.2661,-2.9375 2.8125,-2.9375 z"
         style="fill:#000000"
         inkscape:connector-curvature="0" />
    </g>
    <g
       transform="translate(1794.8113,247.7018)"
       id="g4122"
       style="fill:#000000;stroke:none">
      <path
         id="path4124"
         transform="translate(-157,-121)"
         d="m 164,121.34375 c -3.86599,0 -7,2.10319 -7,6.15625 0,4.05306 3.13401,6.3125 7,6.3125 3.86599,0 7,-2.25944 7,-6.3125 0,-4.05306 -3.13401,-6.15625 -7,-6.15625 z m -0.1875,3.4375 c 1.5464,0 2.78125,1.31628 2.78125,2.9375 0,1.62122 -1.23485,2.9375 -2.78125,2.9375 -1.5464,0 -2.8125,-1.31628 -2.8125,-2.9375 0,-1.62122 1.2661,-2.9375 2.8125,-2.9375 z"
         style="fill:#000000"
         inkscape:connector-curvature="0" />
    </g>
    <path
       sodipodi:type="arc"
       style="fill:#e6e6e6;fill-opacity:1;fill-rule:evenodd;stroke:none"
       id="path4234"
       sodipodi:cx="1094.7701"
       sodipodi:cy="323.75235"
       sodipodi:rx="20.541206"
       sodipodi:ry="2.6627488"
       d="m 1115.3113,323.75235 c 0,1.4706 -9.1966,2.66275 -20.5412,2.66275 -11.3446,0 -20.5412,-1.19215 -20.5412,-2.66275 0,-1.4706 9.1966,-2.66275 20.5412,-2.66275 11.3446,0 20.5412,1.19215 20.5412,2.66275 z"
       transform="translate(692.03733,37.888917)" />
    <path
       inkscape:export-ydpi="658.66034"
       inkscape:export-xdpi="658.66034"
       inkscape:export-filename="/Users/jean-marie/Pertimm/voqal.ai/avatar.png"
       inkscape:connector-curvature="0"
       id="path5322"
       d="m 1784.455,302.51489 c -4.1708,0 -7.5241,3.36203 -7.5241,7.53287 0,0.13029 0,0.25873 0,0.3874 l 1.0962,0 1.6247,-2.80884 c -0.2143,-0.51475 -0.015,-1.12712 0.4842,-1.41324 0.1338,-0.0776 0.2724,-0.12744 0.4182,-0.14528 0.4374,-0.0534 0.8898,0.15579 1.1227,0.55913 l 2.7693,4.79444 2.7649,-4.79444 c 0.2328,-0.40344 0.6809,-0.61245 1.1182,-0.55913 0.1449,0.0177 0.2926,0.0677 0.4271,0.14528 0.4929,0.28467 0.6897,0.89138 0.4799,1.40443 l 1.5364,2.67238 1.1975,0 c 0.016,-0.005 0.016,0.0143 0.016,-0.24213 0,-4.17084 -3.3621,-7.53287 -7.5328,-7.53287 z m -4.0593,6.40139 -1.4307,2.48306 c -0.032,0.0562 -0.078,0.0986 -0.1227,0.14081 -0.028,0.0277 -0.059,0.0578 -0.092,0.0793 -0.02,0.0127 -0.04,0.0289 -0.062,0.0397 0,0.003 -0.015,0.002 -0.018,0.005 -0.029,0.0143 -0.06,0.0212 -0.092,0.0309 -0.02,0.007 -0.04,0.0127 -0.062,0.0177 -0.02,0.003 -0.042,0.007 -0.062,0.008 -0.022,0.003 -0.047,0.005 -0.07,0.005 l -1.2678,0 c 0.7612,3.35426 3.7478,5.84665 7.3391,5.84665 1.538,0 2.9624,-0.4559 4.1516,-1.24154 l 3.0951,0.8541 -1.0787,-2.81324 c 0.4774,-0.52159 1.1891,-1.77187 1.1931,-2.79126 l -1.3913,0 c -0.022,0 -0.04,-0.007 -0.062,-0.01 -0.02,-0.003 -0.042,-0.007 -0.062,-0.01 -0.021,-0.005 -0.042,-0.007 -0.062,-0.0127 -0.04,-0.0127 -0.078,-0.0285 -0.1146,-0.0484 -0.019,-0.01 -0.04,-0.0199 -0.057,-0.0309 -0.035,-0.0217 -0.06,-0.0504 -0.092,-0.0793 -0.046,-0.043 -0.089,-0.0873 -0.1226,-0.14527 l -1.3471,-2.32898 -3.0774,5.33156 c 0,0.008 -0.016,0.0143 -0.017,0.022 -0.02,0.032 -0.04,0.0631 -0.062,0.0924 -0.067,0.0875 -0.145,0.16666 -0.2378,0.23335 0,0.003 -0.016,0.007 -0.016,0.008 -0.027,0.0188 -0.054,0.0362 -0.085,0.0529 -0.033,0.0194 -0.067,0.0372 -0.1019,0.0529 -0.033,0.0159 -0.07,0.0275 -0.1051,0.0397 -0.2988,0.10227 -0.6374,0.0848 -0.929,-0.0836 -0.2194,-0.12663 -0.3789,-0.31854 -0.471,-0.53712 l -3.0115,-5.21267 z"
       style="font-size:40px;font-style:normal;font-variant:normal;font-weight:500;font-stretch:normal;line-height:125%;letter-spacing:0px;word-spacing:0px;opacity:0.98000004;fill:#49d8fb;fill-opacity:1;fill-rule:evenodd;stroke:none;font-family:Futura;-inkscape-font-specification:Futura Medium" />
  </g>
  <g
     id="g5621"
     transform="translate(-1032.8765,-42.914566)"
     inkscape:export-filename="/Users/jean-marie/Pertimm/voqal.ai/platform/webapp/app/assets/images/default_avatar.png"
     inkscape:export-xdpi="137.82001"
     inkscape:export-ydpi="137.82001">
    <path
       sodipodi:nodetypes="cccccsscsscsssscccc"
       inkscape:connector-curvature="0"
       id="path5577"
       d="m 1179.5606,490.41586 c -0.2588,0.0233 -0.5054,0.0887 -0.75,0.21875 -0.9783,0.52017 -1.3327,1.74044 -0.8125,2.71875 l 10.7813,20.3125 c 0.057,0.10834 0.1143,0.18824 0.1874,0.28125 -12.0126,6.45061 -17.9062,16.06701 -17.9062,24.0625 l 0,27.53125 c 0,3.25161 1.5132,6.24387 4.0312,8.71875 2.5182,2.47488 6.0393,4.51215 10.4063,6.1875 8.7341,3.3507 20.9192,5.25 35.5625,5.25 14.5755,0 26.7224,-1.14382 35.4688,-3.90625 4.373,-1.38122 7.9077,-3.14589 10.4687,-5.5625 2.561,-2.41661 4.0625,-5.57497 4.0625,-9.09375 l 0,-28.0625 c 0,-14.04011 -16.3401,-32.5502 -50,-32.375 -11.542,0.0601 -21.082,2.17743 -28.5938,5.5 -0.038,-0.13828 -0.086,-0.27405 -0.1562,-0.40625 l -10.7812,-20.3125 c -0.3903,-0.73373 -1.1924,-1.13236 -1.9688,-1.0625 z"
       style="font-size:medium;font-style:normal;font-variant:normal;font-weight:normal;font-stretch:normal;text-indent:0;text-align:start;text-decoration:none;line-height:normal;letter-spacing:normal;word-spacing:normal;text-transform:none;direction:ltr;block-progression:tb;writing-mode:lr-tb;text-anchor:start;baseline-shift:baseline;color:#000000;fill:url(#linearGradient5628);fill-opacity:1;fill-rule:nonzero;stroke:none;stroke-width:4;marker:none;visibility:visible;display:inline;overflow:visible;enable-background:accumulate;font-family:Sans;-inkscape-font-specification:Sans" />
    <path
       sodipodi:nodetypes="ccccccsccccsccsccccc"
       inkscape:connector-curvature="0"
       id="path5587"
       d="m 1265.065,492.08197 c -0.6414,0.0112 -1.2791,0.32547 -1.6562,0.90625 l -12.5313,19.28125 c -0.1821,0.28038 -0.2513,0.59609 -0.2813,0.90625 -2.8919,-1.44392 -6.0919,-2.71585 -9.625,-3.71875 0.3559,1.90195 0.8574,3.82667 1.1563,5.71875 0.8805,5.57289 1.5179,11.10018 1.9375,16.59375 0.4196,5.49357 0.6192,10.95131 0.625,16.375 0.01,5.42369 -0.1703,10.82422 -0.5312,16.1875 -0.3613,5.36328 -0.913,10.68768 -1.5938,16 -0.1836,1.43217 -0.4517,2.85235 -0.6562,4.28125 5.2318,-0.63089 9.9658,-1.50547 13.9062,-2.75 4.3731,-1.38122 7.9077,-3.14589 10.4688,-5.5625 2.5606,-2.41661 4.0626,-5.57497 4.0624,-9.09375 l 0,-28.0625 c 0,-8.08991 -5.4961,-17.60646 -16.5624,-24.21875 0.1696,-0.13309 0.3444,-0.27729 0.4687,-0.46875 l 12.5,-19.28125 c 0.6035,-0.92925 0.3667,-2.17779 -0.5625,-2.78125 -0.3485,-0.2263 -0.7402,-0.31921 -1.125,-0.3125 z"
       style="font-size:medium;font-style:normal;font-variant:normal;font-weight:normal;font-stretch:normal;text-indent:0;text-align:start;text-decoration:none;line-height:normal;letter-spacing:normal;word-spacing:normal;text-transform:none;direction:ltr;block-progression:tb;writing-mode:lr-tb;text-anchor:start;baseline-shift:baseline;color:#000000;fill:#111111;fill-opacity:1;fill-rule:nonzero;stroke:none;stroke-width:4;marker:none;visibility:visible;display:inline;overflow:visible;enable-background:accumulate;font-family:Sans;-inkscape-font-specification:Sans" />
    <rect
       style="fill:#ffffff;stroke:none"
       rx="13.155108"
       height="26.310217"
       width="77"
       y="540.39154"
       x="1181.3655"
       id="rect5589"
       ry="13.155108" />
    <path
       style="fill:#000000;stroke:none"
       inkscape:connector-curvature="0"
       id="path5593"
       d="m 1193.8441,551.17852 c 3.4562,-1.8773 8.1193,-2.50737 12.5784,0.33328 4.4592,2.84064 2.3327,5.44711 0,3.23131 -2.3326,-2.2158 -9.9946,-2.16892 -13.1919,0 -3.1973,2.16892 -2.8426,-1.68729 0.6135,-3.56459 z" />
    <path
       style="fill:#000000;stroke:none"
       inkscape:connector-curvature="0"
       id="path5595"
       d="m 1233.8441,551.17852 c 3.4562,-1.8773 8.1193,-2.50737 12.5784,0.33328 4.4592,2.84064 2.3327,5.44711 0,3.23131 -2.3326,-2.2158 -9.9946,-2.16892 -13.1919,0 -3.1973,2.16892 -2.8426,-1.68729 0.6135,-3.56459 z" />
  </g>
</svg>
